<?xml version="1.0" encoding="UTF-8" standalone="no"?><svg xmlns="http://www.w3.org/2000/svg" xmlns:xlink="http://www.w3.org/1999/xlink" contentScriptType="application/ecmascript" contentStyleType="text/css" height="774px" preserveAspectRatio="none" style="width:379px;height:774px;" version="1.1" viewBox="0 0 379 774" width="379px" zoomAndPan="magnify"><defs><filter height="300%" id="f18e9kdb3xaguo" width="300%" x="-1" y="-1"><feGaussianBlur result="blurOut" stdDeviation="2.0"/><feColorMatrix in="blurOut" result="blurOut2" type="matrix" values="0 0 0 0 0 0 0 0 0 0 0 0 0 0 0 0 0 0 .4 0"/><feOffset dx="4.0" dy="4.0" in="blurOut2" result="blurOut3"/><feBlend in="SourceGraphic" in2="blurOut3" mode="normal"/></filter></defs><g><!--MD5=[dfb0845b8492ffe07b1ce50e003034d7]
class Team--><rect fill="#F8F8F8" filter="url(#f18e9kdb3xaguo)" height="60.8047" id="Team" style="stroke: #383838; stroke-width: 1.5;" width="66" x="60.5" y="475"/><ellipse cx="75.5" cy="491" fill="#C2C2C2" rx="11" ry="11" style="stroke: #383838; stroke-width: 1.0;"/><path d="M78.4688,496.6406 Q77.8906,496.9375 77.25,497.0781 Q76.6094,497.2344 75.9063,497.2344 Q73.4063,497.2344 72.0781,495.5938 Q70.7656,493.9375 70.7656,490.8125 Q70.7656,487.6875 72.0781,486.0313 Q73.4063,484.375 75.9063,484.375 Q76.6094,484.375 77.25,484.5313 Q77.9063,484.6875 78.4688,484.9844 L78.4688,487.7031 Q77.8438,487.125 77.25,486.8594 Q76.6563,486.5781 76.0313,486.5781 Q74.6875,486.5781 74,487.6563 Q73.3125,488.7188 73.3125,490.8125 Q73.3125,492.9063 74,493.9844 Q74.6875,495.0469 76.0313,495.0469 Q76.6563,495.0469 77.25,494.7813 Q77.8438,494.5 78.4688,493.9219 L78.4688,496.6406 Z "/><text fill="#000000" font-family="sans-serif" font-size="12" lengthAdjust="spacingAndGlyphs" textLength="34" x="89.5" y="495.1543">Team</text><line style="stroke: #383838; stroke-width: 1.5;" x1="61.5" x2="125.5" y1="507" y2="507"/><text fill="#000000" font-family="sans-serif" font-size="11" lengthAdjust="spacingAndGlyphs" textLength="32" x="66.5" y="521.2104">name</text><line style="stroke: #383838; stroke-width: 1.5;" x1="61.5" x2="125.5" y1="527.8047" y2="527.8047"/><!--MD5=[3fd616f346a44cd59a91eb10b19e157c]
class User--><rect fill="#F8F8F8" filter="url(#f18e9kdb3xaguo)" height="112.0234" id="User" style="stroke: #383838; stroke-width: 1.5;" width="175" x="6" y="196.5"/><ellipse cx="74.75" cy="212.5" fill="#C2C2C2" rx="11" ry="11" style="stroke: #383838; stroke-width: 1.0;"/><path d="M77.7188,218.1406 Q77.1406,218.4375 76.5,218.5781 Q75.8594,218.7344 75.1563,218.7344 Q72.6563,218.7344 71.3281,217.0938 Q70.0156,215.4375 70.0156,212.3125 Q70.0156,209.1875 71.3281,207.5313 Q72.6563,205.875 75.1563,205.875 Q75.8594,205.875 76.5,206.0313 Q77.1563,206.1875 77.7188,206.4844 L77.7188,209.2031 Q77.0938,208.625 76.5,208.3594 Q75.9063,208.0781 75.2813,208.0781 Q73.9375,208.0781 73.25,209.1563 Q72.5625,210.2188 72.5625,212.3125 Q72.5625,214.4063 73.25,215.4844 Q73.9375,216.5469 75.2813,216.5469 Q75.9063,216.5469 76.5,216.2813 Q77.0938,216 77.7188,215.4219 L77.7188,218.1406 Z "/><text fill="#000000" font-family="sans-serif" font-size="12" lengthAdjust="spacingAndGlyphs" textLength="29" x="95.25" y="216.6543">User</text><line style="stroke: #383838; stroke-width: 1.5;" x1="7" x2="180" y1="228.5" y2="228.5"/><text fill="#000000" font-family="sans-serif" font-size="11" lengthAdjust="spacingAndGlyphs" textLength="31" x="12" y="242.7104">email</text><text fill="#000000" font-family="sans-serif" font-size="11" lengthAdjust="spacingAndGlyphs" textLength="68" x="12" y="255.5151">short_name</text><text fill="#000000" font-family="sans-serif" font-size="11" lengthAdjust="spacingAndGlyphs" textLength="55" x="12" y="268.3198">full_name</text><text fill="#000000" font-family="sans-serif" font-size="11" lengthAdjust="spacingAndGlyphs" textLength="49" x="12" y="281.1245">is_active</text><text fill="#000000" font-family="sans-serif" font-size="11" lengthAdjust="spacingAndGlyphs" textLength="163" x="12" y="293.9292">enforce_same_week_logging</text><line style="stroke: #383838; stroke-width: 1.5;" x1="7" x2="180" y1="300.5234" y2="300.5234"/><!--MD5=[5d14f7921560a44e9febc0bc39f368dc]
class Erfasste Stunden--><rect fill="#F8F8F8" filter="url(#f18e9kdb3xaguo)" height="86.4141" id="Erfasste Stunden" style="stroke: #383838; stroke-width: 1.5;" width="141" x="112" y="8"/><ellipse cx="127" cy="24" fill="#C2C2C2" rx="11" ry="11" style="stroke: #383838; stroke-width: 1.0;"/><path d="M129.9688,29.6406 Q129.3906,29.9375 128.75,30.0781 Q128.1094,30.2344 127.4063,30.2344 Q124.9063,30.2344 123.5781,28.5938 Q122.2656,26.9375 122.2656,23.8125 Q122.2656,20.6875 123.5781,19.0313 Q124.9063,17.375 127.4063,17.375 Q128.1094,17.375 128.75,17.5313 Q129.4063,17.6875 129.9688,17.9844 L129.9688,20.7031 Q129.3438,20.125 128.75,19.8594 Q128.1563,19.5781 127.5313,19.5781 Q126.1875,19.5781 125.5,20.6563 Q124.8125,21.7188 124.8125,23.8125 Q124.8125,25.9063 125.5,26.9844 Q126.1875,28.0469 127.5313,28.0469 Q128.1563,28.0469 128.75,27.7813 Q129.3438,27.5 129.9688,26.9219 L129.9688,29.6406 Z "/><text fill="#000000" font-family="sans-serif" font-size="12" lengthAdjust="spacingAndGlyphs" textLength="109" x="141" y="28.1543">Erfasste Stunden</text><line style="stroke: #383838; stroke-width: 1.5;" x1="113" x2="252" y1="40" y2="40"/><text fill="#000000" font-family="sans-serif" font-size="11" lengthAdjust="spacingAndGlyphs" textLength="105" x="118" y="54.2104">rendered_on: date</text><text fill="#000000" font-family="sans-serif" font-size="11" lengthAdjust="spacingAndGlyphs" textLength="33" x="118" y="67.0151">hours</text><text fill="#000000" font-family="sans-serif" font-size="11" lengthAdjust="spacingAndGlyphs" textLength="63" x="118" y="79.8198">description</text><line style="stroke: #383838; stroke-width: 1.5;" x1="113" x2="252" y1="86.4141" y2="86.4141"/><!--MD5=[0109e2b19ba7ef71554b57c14b9fe632]
class Offerte--><rect fill="#F8F8F8" filter="url(#f18e9kdb3xaguo)" height="188.8516" id="Offerte" style="stroke: #383838; stroke-width: 1.5;" width="106" x="194.5" y="411"/><ellipse cx="223.45" cy="427" fill="#C2C2C2" rx="11" ry="11" style="stroke: #383838; stroke-width: 1.0;"/><path d="M226.4188,432.6406 Q225.8406,432.9375 225.2,433.0781 Q224.5594,433.2344 223.8563,433.2344 Q221.3563,433.2344 220.0281,431.5938 Q218.7156,429.9375 218.7156,426.8125 Q218.7156,423.6875 220.0281,422.0313 Q221.3563,420.375 223.8563,420.375 Q224.5594,420.375 225.2,420.5313 Q225.8563,420.6875 226.4188,420.9844 L226.4188,423.7031 Q225.7938,423.125 225.2,422.8594 Q224.6063,422.5781 223.9813,422.5781 Q222.6375,422.5781 221.95,423.6563 Q221.2625,424.7188 221.2625,426.8125 Q221.2625,428.9063 221.95,429.9844 Q222.6375,431.0469 223.9813,431.0469 Q224.6063,431.0469 225.2,430.7813 Q225.7938,430.5 226.4188,429.9219 L226.4188,432.6406 Z "/><text fill="#000000" font-family="sans-serif" font-size="12" lengthAdjust="spacingAndGlyphs" textLength="43" x="240.55" y="431.1543">Offerte</text><line style="stroke: #383838; stroke-width: 1.5;" x1="195.5" x2="299.5" y1="443" y2="443"/><text fill="#000000" font-family="sans-serif" font-size="11" lengthAdjust="spacingAndGlyphs" textLength="94" x="200.5" y="457.2104">offered_on: date</text><text fill="#000000" font-family="sans-serif" font-size="11" lengthAdjust="spacingAndGlyphs" textLength="21" x="200.5" y="470.0151">title</text><text fill="#000000" font-family="sans-serif" font-size="11" lengthAdjust="spacingAndGlyphs" textLength="63" x="200.5" y="482.8198">description</text><text fill="#000000" font-family="sans-serif" font-size="11" lengthAdjust="spacingAndGlyphs" textLength="36" x="200.5" y="495.6245">status</text><text fill="#000000" font-family="sans-serif" font-size="11" lengthAdjust="spacingAndGlyphs" textLength="88" x="200.5" y="508.4292">postal_address</text><text fill="#000000" font-family="sans-serif" font-size="11" lengthAdjust="spacingAndGlyphs" textLength="50" x="200.5" y="521.2339">/subtotal</text><text fill="#000000" font-family="sans-serif" font-size="11" lengthAdjust="spacingAndGlyphs" textLength="48" x="200.5" y="534.0386">discount</text><text fill="#000000" font-family="sans-serif" font-size="11" lengthAdjust="spacingAndGlyphs" textLength="70" x="200.5" y="546.8433">liable_to_vat</text><text fill="#000000" font-family="sans-serif" font-size="11" lengthAdjust="spacingAndGlyphs" textLength="80" x="200.5" y="559.6479">/total_excl_tax</text><text fill="#000000" font-family="sans-serif" font-size="11" lengthAdjust="spacingAndGlyphs" textLength="46" x="200.5" y="572.4526">tax_rate</text><text fill="#000000" font-family="sans-serif" font-size="11" lengthAdjust="spacingAndGlyphs" textLength="29" x="200.5" y="585.2573">/total</text><line style="stroke: #383838; stroke-width: 1.5;" x1="195.5" x2="299.5" y1="591.8516" y2="591.8516"/><!--MD5=[0a2ba4af162a0d0618c108ae27e0c268]
class Projekt--><rect fill="#F8F8F8" filter="url(#f18e9kdb3xaguo)" height="86.4141" id="Projekt" style="stroke: #383838; stroke-width: 1.5;" width="76" x="263.5" y="677"/><ellipse cx="278.5" cy="693" fill="#C2C2C2" rx="11" ry="11" style="stroke: #383838; stroke-width: 1.0;"/><path d="M281.4688,698.6406 Q280.8906,698.9375 280.25,699.0781 Q279.6094,699.2344 278.9063,699.2344 Q276.4063,699.2344 275.0781,697.5938 Q273.7656,695.9375 273.7656,692.8125 Q273.7656,689.6875 275.0781,688.0313 Q276.4063,686.375 278.9063,686.375 Q279.6094,686.375 280.25,686.5313 Q280.9063,686.6875 281.4688,686.9844 L281.4688,689.7031 Q280.8438,689.125 280.25,688.8594 Q279.6563,688.5781 279.0313,688.5781 Q277.6875,688.5781 277,689.6563 Q276.3125,690.7188 276.3125,692.8125 Q276.3125,694.9063 277,695.9844 Q277.6875,697.0469 279.0313,697.0469 Q279.6563,697.0469 280.25,696.7813 Q280.8438,696.5 281.4688,695.9219 L281.4688,698.6406 Z "/><text fill="#000000" font-family="sans-serif" font-size="12" lengthAdjust="spacingAndGlyphs" textLength="44" x="292.5" y="697.1543">Projekt</text><line style="stroke: #383838; stroke-width: 1.5;" x1="264.5" x2="338.5" y1="709" y2="709"/><text fill="#000000" font-family="sans-serif" font-size="11" lengthAdjust="spacingAndGlyphs" textLength="21" x="269.5" y="723.2104">title</text><text fill="#000000" font-family="sans-serif" font-size="11" lengthAdjust="spacingAndGlyphs" textLength="63" x="269.5" y="736.0151">description</text><text fill="#000000" font-family="sans-serif" font-size="11" lengthAdjust="spacingAndGlyphs" textLength="24" x="269.5" y="748.8198">type</text><line style="stroke: #383838; stroke-width: 1.5;" x1="264.5" x2="338.5" y1="755.4141" y2="755.4141"/><!--MD5=[b5f27a75664da07ae6120e07225df8d5]
class Leistung--><rect fill="#F8F8F8" filter="url(#f18e9kdb3xaguo)" height="163.2422" id="Leistung" style="stroke: #383838; stroke-width: 1.5;" width="110" x="216.5" y="171"/><ellipse cx="242.75" cy="187" fill="#C2C2C2" rx="11" ry="11" style="stroke: #383838; stroke-width: 1.0;"/><path d="M245.7188,192.6406 Q245.1406,192.9375 244.5,193.0781 Q243.8594,193.2344 243.1563,193.2344 Q240.6563,193.2344 239.3281,191.5938 Q238.0156,189.9375 238.0156,186.8125 Q238.0156,183.6875 239.3281,182.0313 Q240.6563,180.375 243.1563,180.375 Q243.8594,180.375 244.5,180.5313 Q245.1563,180.6875 245.7188,180.9844 L245.7188,183.7031 Q245.0938,183.125 244.5,182.8594 Q243.9063,182.5781 243.2813,182.5781 Q241.9375,182.5781 241.25,183.6563 Q240.5625,184.7188 240.5625,186.8125 Q240.5625,188.9063 241.25,189.9844 Q241.9375,191.0469 243.2813,191.0469 Q243.9063,191.0469 244.5,190.7813 Q245.0938,190.5 245.7188,189.9219 L245.7188,192.6406 Z "/><text fill="#000000" font-family="sans-serif" font-size="12" lengthAdjust="spacingAndGlyphs" textLength="53" x="259.25" y="191.1543">Leistung</text><line style="stroke: #383838; stroke-width: 1.5;" x1="217.5" x2="325.5" y1="203" y2="203"/><text fill="#000000" font-family="sans-serif" font-size="11" lengthAdjust="spacingAndGlyphs" textLength="21" x="222.5" y="217.2104">title</text><text fill="#000000" font-family="sans-serif" font-size="11" lengthAdjust="spacingAndGlyphs" textLength="63" x="222.5" y="230.0151">description</text><text fill="#000000" font-family="sans-serif" font-size="11" lengthAdjust="spacingAndGlyphs" textLength="70" x="222.5" y="242.8198">effort_hours</text><text fill="#000000" font-family="sans-serif" font-size="11" lengthAdjust="spacingAndGlyphs" textLength="60" x="222.5" y="255.6245">effort_rate</text><text fill="#000000" font-family="sans-serif" font-size="11" lengthAdjust="spacingAndGlyphs" textLength="61" x="222.5" y="268.4292">effort_type</text><text fill="#000000" font-family="sans-serif" font-size="11" lengthAdjust="spacingAndGlyphs" textLength="24" x="222.5" y="281.2339">cost</text><text fill="#000000" font-family="sans-serif" font-size="11" lengthAdjust="spacingAndGlyphs" textLength="98" x="222.5" y="294.0386">third_party_costs</text><text fill="#000000" font-family="sans-serif" font-size="11" lengthAdjust="spacingAndGlyphs" textLength="75" x="222.5" y="306.8433">/service_cost</text><text fill="#000000" font-family="sans-serif" font-size="11" lengthAdjust="spacingAndGlyphs" textLength="84" x="222.5" y="319.6479">/service_hours</text><line style="stroke: #383838; stroke-width: 1.5;" x1="217.5" x2="325.5" y1="326.2422" y2="326.2422"/><!--MD5=[3c85ed1c74d2fd8e0488dff9cf058b2b]
link User to Team--><path d="M93.5,308.6489 C93.5,359.8923 93.5,433.7189 93.5,474.8563 " fill="none" id="User-Team" style="stroke: #383838; stroke-width: 1.0;"/><text fill="#000000" font-family="sans-serif" font-size="13" lengthAdjust="spacingAndGlyphs" textLength="71" x="94.5" y="377.0669">member of</text><polygon fill="#000000" points="125.5,386.1328,128.5,392.1328,131.5,386.1328,125.5,386.1328" style="stroke: #000000; stroke-width: 1.0;"/><text fill="#000000" font-family="sans-serif" font-size="13" lengthAdjust="spacingAndGlyphs" textLength="24" x="68.0375" y="328.4797">1..n</text><text fill="#000000" font-family="sans-serif" font-size="13" lengthAdjust="spacingAndGlyphs" textLength="24" x="67.025" y="464.0899">0..n</text><!--MD5=[6897b31274537250c4037f7029016244]
link Erfasste Stunden to User--><path d="M143.3068,94.0881 C136.2469,103.4574 129.5408,113.6718 124.5,124 C113.5283,146.4799 106.2797,173.1124 101.5728,196.2861 " fill="none" id="Erfasste Stunden-User" style="stroke: #383838; stroke-width: 1.0;"/><text fill="#000000" font-family="sans-serif" font-size="13" lengthAdjust="spacingAndGlyphs" textLength="77" x="125.5" y="137.0669">rendered by</text><polygon fill="#000000" points="159.5,146.1328,162.5,152.1328,165.5,146.1328,159.5,146.1328" style="stroke: #000000; stroke-width: 1.0;"/><text fill="#000000" font-family="sans-serif" font-size="13" lengthAdjust="spacingAndGlyphs" textLength="24" x="110.8279" y="114.5104">0..n</text><text fill="#000000" font-family="sans-serif" font-size="13" lengthAdjust="spacingAndGlyphs" textLength="8" x="94.0692" y="185.5945">1</text><!--MD5=[93a085ecc64eb3948b59e9b5d71bebdf]
link Erfasste Stunden to Leistung--><path d="M205.9434,94.2594 C210.937,103.9538 216.0437,114.2546 220.5,124 C227.3372,138.9522 234.167,155.103 240.5037,170.7404 " fill="none" id="Erfasste Stunden-Leistung" style="stroke: #383838; stroke-width: 1.0;"/><text fill="#000000" font-family="sans-serif" font-size="13" lengthAdjust="spacingAndGlyphs" textLength="63" x="228.5" y="137.0669">logged on</text><polygon fill="#000000" points="255.5,146.1328,258.5,152.1328,261.5,146.1328,255.5,146.1328" style="stroke: #000000; stroke-width: 1.0;"/><text fill="#000000" font-family="sans-serif" font-size="13" lengthAdjust="spacingAndGlyphs" textLength="24" x="183.7672" y="114.3937">0..n</text><text fill="#000000" font-family="sans-serif" font-size="13" lengthAdjust="spacingAndGlyphs" textLength="8" x="229.3868" y="159.8527">1</text><!--MD5=[8c9c7141a0755fb1e5229c011da04335]
link Offerte to Projekt--><path d="M240.9541,600.0516 C242.0735,615.9972 244.6437,632.1741 249.5,647 C252.8905,657.351 258.3148,667.4994 264.4071,676.782 " fill="none" id="Offerte-Projekt" style="stroke: #383838; stroke-width: 1.0;"/><text fill="#000000" font-family="sans-serif" font-size="13" lengthAdjust="spacingAndGlyphs" textLength="67" x="250.5" y="643.0669">belongs to</text><polygon fill="#000000" points="279.5,652.1328,282.5,658.1328,285.5,652.1328,279.5,652.1328" style="stroke: #000000; stroke-width: 1.0;"/><text fill="#000000" font-family="sans-serif" font-size="13" lengthAdjust="spacingAndGlyphs" textLength="24" x="215.5342" y="619.9426">0..n</text><text fill="#000000" font-family="sans-serif" font-size="13" lengthAdjust="spacingAndGlyphs" textLength="8" x="250.1147" y="666.0612">1</text><!--MD5=[c1c5db8156a385ee752af45e10f898d4]
link Leistung to Offerte--><path d="M247.7198,334.2403 C245.5735,344.1934 243.7436,354.2784 242.5,364 C240.5662,379.1172 239.8624,395.2117 239.9062,410.9234 " fill="none" id="Leistung-Offerte" style="stroke: #383838; stroke-width: 1.0;"/><text fill="#000000" font-family="sans-serif" font-size="13" lengthAdjust="spacingAndGlyphs" textLength="74" x="243.5" y="377.0669">offered with</text><polygon fill="#000000" points="276,386.1328,279,392.1328,282,386.1328,276,386.1328" style="stroke: #000000; stroke-width: 1.0;"/><text fill="#000000" font-family="sans-serif" font-size="13" lengthAdjust="spacingAndGlyphs" textLength="24" x="220.5331" y="354.2503">1..n</text><text fill="#000000" font-family="sans-serif" font-size="13" lengthAdjust="spacingAndGlyphs" textLength="24" x="214.3448" y="399.8673">0..1</text><!--MD5=[994d64182924101532ebe0d019f8b435]
link Leistung to Projekt--><path d="M324.5608,334.1516 C329.0126,343.9075 332.8264,353.9715 335.5,364 C367.9004,485.533 362.6953,524.1975 335.5,647 C333.2933,656.9646 329.5804,667.1822 325.3998,676.6982 " fill="none" id="Leistung-Projekt" style="stroke: #383838; stroke-width: 1.0;"/><text fill="#000000" font-family="sans-serif" font-size="13" lengthAdjust="spacingAndGlyphs" textLength="24" x="304.3461" y="354.4321">0..n</text><text fill="#000000" font-family="sans-serif" font-size="13" lengthAdjust="spacingAndGlyphs" textLength="8" x="320.447" y="665.9645">1</text><!--MD5=[1ebfca2139cd3add7016ce165e0a2f0b]
@startuml

skinparam monochrome true
skinparam classStereotypeFontSize 10

class "Team" {
  name
}

class "User" {
  email
  short_name
  full_name
  is_active
  enforce_same_week_logging
}

class "Erfasste Stunden" {
  rendered_on: date
  hours
  description
}

class "Offerte" {
  offered_on: date
  title
  description
  status
  postal_address
  /subtotal
  discount
  liable_to_vat
  /total_excl_tax
  tax_rate
  /total
}

class "Projekt" {
  title
  description
  type
}

class "Leistung" {
  title
  description
  effort_hours
  effort_rate
  effort_type
  cost
  third_party_costs
  /service_cost
  /service_hours
}

 User "1..n" - - "0..n" Team : member of >

 "Erfasste Stunden" "0..n" - - "1" User : rendered by >

 "Erfasste Stunden" "0..n" - - "1" Leistung : logged on >

 Offerte "0..n" - - "1" Projekt : belongs to >

 Leistung "1..n" - - "0..1" Offerte : offered with >

 Leistung "0..n" - - "1" Projekt

@enduml

PlantUML version 1.2020.01(Sun Feb 16 18:40:32 CET 2020)
(GPL source distribution)
Java Runtime: OpenJDK Runtime Environment
JVM: OpenJDK 64-Bit Server VM
Java Version: 11.0.6+10-post-Ubuntu-1ubuntu118.04.1
Operating System: Linux
Default Encoding: UTF-8
Language: en
Country: US
--></g></svg>