<?xml version="1.0" encoding="UTF-8" standalone="no"?><svg xmlns="http://www.w3.org/2000/svg" xmlns:xlink="http://www.w3.org/1999/xlink" contentScriptType="application/ecmascript" contentStyleType="text/css" height="1088px" preserveAspectRatio="none" style="width:535px;height:1088px;" version="1.1" viewBox="0 0 535 1088" width="535px" zoomAndPan="magnify"><defs><filter height="300%" id="f1j7lb9anpi0kf" width="300%" x="-1" y="-1"><feGaussianBlur result="blurOut" stdDeviation="2.0"/><feColorMatrix in="blurOut" result="blurOut2" type="matrix" values="0 0 0 0 0 0 0 0 0 0 0 0 0 0 0 0 0 0 .4 0"/><feOffset dx="4.0" dy="4.0" in="blurOut2" result="blurOut3"/><feBlend in="SourceGraphic" in2="blurOut3" mode="normal"/></filter></defs><g><!--MD5=[dfb0845b8492ffe07b1ce50e003034d7]
class Team--><rect fill="#F8F8F8" filter="url(#f1j7lb9anpi0kf)" height="60.8047" id="Team" style="stroke: #383838; stroke-width: 1.5;" width="66" x="81.0243" y="488"/><ellipse cx="96.0243" cy="504" fill="#C2C2C2" rx="11" ry="11" style="stroke: #383838; stroke-width: 1.0;"/><path d="M98.9931,509.6406 Q98.4149,509.9375 97.7743,510.0781 Q97.1337,510.2344 96.4306,510.2344 Q93.9306,510.2344 92.6024,508.5938 Q91.2899,506.9375 91.2899,503.8125 Q91.2899,500.6875 92.6024,499.0313 Q93.9306,497.375 96.4306,497.375 Q97.1337,497.375 97.7743,497.5313 Q98.4306,497.6875 98.9931,497.9844 L98.9931,500.7031 Q98.3681,500.125 97.7743,499.8594 Q97.1806,499.5781 96.5556,499.5781 Q95.2118,499.5781 94.5243,500.6563 Q93.8368,501.7188 93.8368,503.8125 Q93.8368,505.9063 94.5243,506.9844 Q95.2118,508.0469 96.5556,508.0469 Q97.1806,508.0469 97.7743,507.7813 Q98.3681,507.5 98.9931,506.9219 L98.9931,509.6406 Z "/><text fill="#000000" font-family="sans-serif" font-size="12" lengthAdjust="spacingAndGlyphs" textLength="34" x="110.0243" y="508.1543">Team</text><line style="stroke: #383838; stroke-width: 1.5;" x1="82.0243" x2="146.0243" y1="520" y2="520"/><text fill="#000000" font-family="sans-serif" font-size="11" lengthAdjust="spacingAndGlyphs" textLength="32" x="87.0243" y="534.2104">name</text><line style="stroke: #383838; stroke-width: 1.5;" x1="82.0243" x2="146.0243" y1="540.8047" y2="540.8047"/><!--MD5=[3fd616f346a44cd59a91eb10b19e157c]
class User--><rect fill="#F8F8F8" filter="url(#f1j7lb9anpi0kf)" height="112.0234" id="User" style="stroke: #383838; stroke-width: 1.5;" width="175" x="26.5243" y="209.5"/><ellipse cx="95.2743" cy="225.5" fill="#C2C2C2" rx="11" ry="11" style="stroke: #383838; stroke-width: 1.0;"/><path d="M98.2431,231.1406 Q97.6649,231.4375 97.0243,231.5781 Q96.3837,231.7344 95.6806,231.7344 Q93.1806,231.7344 91.8524,230.0938 Q90.5399,228.4375 90.5399,225.3125 Q90.5399,222.1875 91.8524,220.5313 Q93.1806,218.875 95.6806,218.875 Q96.3837,218.875 97.0243,219.0313 Q97.6806,219.1875 98.2431,219.4844 L98.2431,222.2031 Q97.6181,221.625 97.0243,221.3594 Q96.4306,221.0781 95.8056,221.0781 Q94.4618,221.0781 93.7743,222.1563 Q93.0868,223.2188 93.0868,225.3125 Q93.0868,227.4063 93.7743,228.4844 Q94.4618,229.5469 95.8056,229.5469 Q96.4306,229.5469 97.0243,229.2813 Q97.6181,229 98.2431,228.4219 L98.2431,231.1406 Z "/><text fill="#000000" font-family="sans-serif" font-size="12" lengthAdjust="spacingAndGlyphs" textLength="29" x="115.7743" y="229.6543">User</text><line style="stroke: #383838; stroke-width: 1.5;" x1="27.5243" x2="200.5243" y1="241.5" y2="241.5"/><text fill="#000000" font-family="sans-serif" font-size="11" lengthAdjust="spacingAndGlyphs" textLength="31" x="32.5243" y="255.7104">email</text><text fill="#000000" font-family="sans-serif" font-size="11" lengthAdjust="spacingAndGlyphs" textLength="68" x="32.5243" y="268.5151">short_name</text><text fill="#000000" font-family="sans-serif" font-size="11" lengthAdjust="spacingAndGlyphs" textLength="55" x="32.5243" y="281.3198">full_name</text><text fill="#000000" font-family="sans-serif" font-size="11" lengthAdjust="spacingAndGlyphs" textLength="49" x="32.5243" y="294.1245">is_active</text><text fill="#000000" font-family="sans-serif" font-size="11" lengthAdjust="spacingAndGlyphs" textLength="163" x="32.5243" y="306.9292">enforce_same_week_logging</text><line style="stroke: #383838; stroke-width: 1.5;" x1="27.5243" x2="200.5243" y1="313.5234" y2="313.5234"/><!--MD5=[28b7f55834c064dbac0e48afbc220c74]
class Organisation--><rect fill="#F8F8F8" filter="url(#f1j7lb9anpi0kf)" height="73.6094" id="Organisation" style="stroke: #383838; stroke-width: 1.5;" width="113" x="281.5243" y="1004"/><ellipse cx="296.9743" cy="1020" fill="#C2C2C2" rx="11" ry="11" style="stroke: #383838; stroke-width: 1.0;"/><path d="M299.943,1025.6406 Q299.3649,1025.9375 298.7243,1026.0781 Q298.0837,1026.2344 297.3805,1026.2344 Q294.8805,1026.2344 293.5524,1024.5938 Q292.2399,1022.9375 292.2399,1019.8125 Q292.2399,1016.6875 293.5524,1015.0313 Q294.8805,1013.375 297.3805,1013.375 Q298.0837,1013.375 298.7243,1013.5313 Q299.3805,1013.6875 299.943,1013.9844 L299.943,1016.7031 Q299.318,1016.125 298.7243,1015.8594 Q298.1305,1015.5781 297.5055,1015.5781 Q296.1618,1015.5781 295.4743,1016.6563 Q294.7868,1017.7188 294.7868,1019.8125 Q294.7868,1021.9063 295.4743,1022.9844 Q296.1618,1024.0469 297.5055,1024.0469 Q298.1305,1024.0469 298.7243,1023.7813 Q299.318,1023.5 299.943,1022.9219 L299.943,1025.6406 Z "/><text fill="#000000" font-family="sans-serif" font-size="12" lengthAdjust="spacingAndGlyphs" textLength="80" x="311.0743" y="1024.1543">Organisation</text><line style="stroke: #383838; stroke-width: 1.5;" x1="282.5243" x2="393.5243" y1="1036" y2="1036"/><text fill="#000000" font-family="sans-serif" font-size="11" lengthAdjust="spacingAndGlyphs" textLength="32" x="287.5243" y="1050.2104">name</text><text fill="#000000" font-family="sans-serif" font-size="11" lengthAdjust="spacingAndGlyphs" textLength="101" x="287.5243" y="1063.0151">is_private_person</text><line style="stroke: #383838; stroke-width: 1.5;" x1="282.5243" x2="393.5243" y1="1069.6094" y2="1069.6094"/><!--MD5=[09ce52be0ee7de43c61b6e2d59bf108b]
class Person--><rect fill="#F8F8F8" filter="url(#f1j7lb9anpi0kf)" height="73.6094" id="Person" style="stroke: #383838; stroke-width: 1.5;" width="84" x="240.0243" y="853"/><ellipse cx="258.6243" cy="869" fill="#C2C2C2" rx="11" ry="11" style="stroke: #383838; stroke-width: 1.0;"/><path d="M261.5931,874.6406 Q261.0149,874.9375 260.3743,875.0781 Q259.7337,875.2344 259.0306,875.2344 Q256.5306,875.2344 255.2024,873.5938 Q253.8899,871.9375 253.8899,868.8125 Q253.8899,865.6875 255.2024,864.0313 Q256.5306,862.375 259.0306,862.375 Q259.7337,862.375 260.3743,862.5313 Q261.0306,862.6875 261.5931,862.9844 L261.5931,865.7031 Q260.9681,865.125 260.3743,864.8594 Q259.7806,864.5781 259.1556,864.5781 Q257.8118,864.5781 257.1243,865.6563 Q256.4368,866.7188 256.4368,868.8125 Q256.4368,870.9063 257.1243,871.9844 Q257.8118,873.0469 259.1556,873.0469 Q259.7806,873.0469 260.3743,872.7813 Q260.9681,872.5 261.5931,871.9219 L261.5931,874.6406 Z "/><text fill="#000000" font-family="sans-serif" font-size="12" lengthAdjust="spacingAndGlyphs" textLength="44" x="273.4243" y="873.1543">Person</text><line style="stroke: #383838; stroke-width: 1.5;" x1="241.0243" x2="323.0243" y1="885" y2="885"/><text fill="#000000" font-family="sans-serif" font-size="11" lengthAdjust="spacingAndGlyphs" textLength="68" x="246.0243" y="899.2104">given_name</text><text fill="#000000" font-family="sans-serif" font-size="11" lengthAdjust="spacingAndGlyphs" textLength="72" x="246.0243" y="912.0151">family_name</text><line style="stroke: #383838; stroke-width: 1.5;" x1="241.0243" x2="323.0243" y1="918.6094" y2="918.6094"/><!--MD5=[27c06f96bf5647573c9fd3fa71a03b51]
class Erfasste Kosten--><rect fill="#F8F8F8" filter="url(#f1j7lb9anpi0kf)" height="99.2188" id="Erfasste Kosten" style="stroke: #383838; stroke-width: 1.5;" width="131" x="32.5243" y="8"/><ellipse cx="47.5243" cy="24" fill="#C2C2C2" rx="11" ry="11" style="stroke: #383838; stroke-width: 1.0;"/><path d="M50.4931,29.6406 Q49.9149,29.9375 49.2743,30.0781 Q48.6337,30.2344 47.9306,30.2344 Q45.4306,30.2344 44.1024,28.5938 Q42.7899,26.9375 42.7899,23.8125 Q42.7899,20.6875 44.1024,19.0313 Q45.4306,17.375 47.9306,17.375 Q48.6337,17.375 49.2743,17.5313 Q49.9306,17.6875 50.4931,17.9844 L50.4931,20.7031 Q49.8681,20.125 49.2743,19.8594 Q48.6806,19.5781 48.0556,19.5781 Q46.7118,19.5781 46.0243,20.6563 Q45.3368,21.7188 45.3368,23.8125 Q45.3368,25.9063 46.0243,26.9844 Q46.7118,28.0469 48.0556,28.0469 Q48.6806,28.0469 49.2743,27.7813 Q49.8681,27.5 50.4931,26.9219 L50.4931,29.6406 Z "/><text fill="#000000" font-family="sans-serif" font-size="12" lengthAdjust="spacingAndGlyphs" textLength="99" x="61.5243" y="28.1543">Erfasste Kosten</text><line style="stroke: #383838; stroke-width: 1.5;" x1="33.5243" x2="162.5243" y1="40" y2="40"/><text fill="#000000" font-family="sans-serif" font-size="11" lengthAdjust="spacingAndGlyphs" textLength="105" x="38.5243" y="54.2104">rendered_on: date</text><text fill="#000000" font-family="sans-serif" font-size="11" lengthAdjust="spacingAndGlyphs" textLength="24" x="38.5243" y="67.0151">cost</text><text fill="#000000" font-family="sans-serif" font-size="11" lengthAdjust="spacingAndGlyphs" textLength="98" x="38.5243" y="79.8198">third_party_costs</text><text fill="#000000" font-family="sans-serif" font-size="11" lengthAdjust="spacingAndGlyphs" textLength="63" x="38.5243" y="92.6245">description</text><line style="stroke: #383838; stroke-width: 1.5;" x1="33.5243" x2="162.5243" y1="99.2188" y2="99.2188"/><!--MD5=[5d14f7921560a44e9febc0bc39f368dc]
class Erfasste Stunden--><rect fill="#F8F8F8" filter="url(#f1j7lb9anpi0kf)" height="86.4141" id="Erfasste Stunden" style="stroke: #383838; stroke-width: 1.5;" width="141" x="237.5243" y="14.5"/><ellipse cx="252.5243" cy="30.5" fill="#C2C2C2" rx="11" ry="11" style="stroke: #383838; stroke-width: 1.0;"/><path d="M255.4931,36.1406 Q254.9149,36.4375 254.2743,36.5781 Q253.6337,36.7344 252.9306,36.7344 Q250.4306,36.7344 249.1024,35.0938 Q247.7899,33.4375 247.7899,30.3125 Q247.7899,27.1875 249.1024,25.5313 Q250.4306,23.875 252.9306,23.875 Q253.6337,23.875 254.2743,24.0313 Q254.9306,24.1875 255.4931,24.4844 L255.4931,27.2031 Q254.8681,26.625 254.2743,26.3594 Q253.6806,26.0781 253.0556,26.0781 Q251.7118,26.0781 251.0243,27.1563 Q250.3368,28.2188 250.3368,30.3125 Q250.3368,32.4063 251.0243,33.4844 Q251.7118,34.5469 253.0556,34.5469 Q253.6806,34.5469 254.2743,34.2813 Q254.8681,34 255.4931,33.4219 L255.4931,36.1406 Z "/><text fill="#000000" font-family="sans-serif" font-size="12" lengthAdjust="spacingAndGlyphs" textLength="109" x="266.5243" y="34.6543">Erfasste Stunden</text><line style="stroke: #383838; stroke-width: 1.5;" x1="238.5243" x2="377.5243" y1="46.5" y2="46.5"/><text fill="#000000" font-family="sans-serif" font-size="11" lengthAdjust="spacingAndGlyphs" textLength="105" x="243.5243" y="60.7104">rendered_on: date</text><text fill="#000000" font-family="sans-serif" font-size="11" lengthAdjust="spacingAndGlyphs" textLength="33" x="243.5243" y="73.5151">hours</text><text fill="#000000" font-family="sans-serif" font-size="11" lengthAdjust="spacingAndGlyphs" textLength="63" x="243.5243" y="86.3198">description</text><line style="stroke: #383838; stroke-width: 1.5;" x1="238.5243" x2="377.5243" y1="92.9141" y2="92.9141"/><!--MD5=[0109e2b19ba7ef71554b57c14b9fe632]
class Offerte--><rect fill="#F8F8F8" filter="url(#f1j7lb9anpi0kf)" height="188.8516" id="Offerte" style="stroke: #383838; stroke-width: 1.5;" width="106" x="364.0243" y="424"/><ellipse cx="392.9743" cy="440" fill="#C2C2C2" rx="11" ry="11" style="stroke: #383838; stroke-width: 1.0;"/><path d="M395.943,445.6406 Q395.3649,445.9375 394.7243,446.0781 Q394.0837,446.2344 393.3805,446.2344 Q390.8805,446.2344 389.5524,444.5938 Q388.2399,442.9375 388.2399,439.8125 Q388.2399,436.6875 389.5524,435.0313 Q390.8805,433.375 393.3805,433.375 Q394.0837,433.375 394.7243,433.5313 Q395.3805,433.6875 395.943,433.9844 L395.943,436.7031 Q395.318,436.125 394.7243,435.8594 Q394.1305,435.5781 393.5055,435.5781 Q392.1618,435.5781 391.4743,436.6563 Q390.7868,437.7188 390.7868,439.8125 Q390.7868,441.9063 391.4743,442.9844 Q392.1618,444.0469 393.5055,444.0469 Q394.1305,444.0469 394.7243,443.7813 Q395.318,443.5 395.943,442.9219 L395.943,445.6406 Z "/><text fill="#000000" font-family="sans-serif" font-size="12" lengthAdjust="spacingAndGlyphs" textLength="43" x="410.0743" y="444.1543">Offerte</text><line style="stroke: #383838; stroke-width: 1.5;" x1="365.0243" x2="469.0243" y1="456" y2="456"/><text fill="#000000" font-family="sans-serif" font-size="11" lengthAdjust="spacingAndGlyphs" textLength="94" x="370.0243" y="470.2104">offered_on: date</text><text fill="#000000" font-family="sans-serif" font-size="11" lengthAdjust="spacingAndGlyphs" textLength="21" x="370.0243" y="483.0151">title</text><text fill="#000000" font-family="sans-serif" font-size="11" lengthAdjust="spacingAndGlyphs" textLength="63" x="370.0243" y="495.8198">description</text><text fill="#000000" font-family="sans-serif" font-size="11" lengthAdjust="spacingAndGlyphs" textLength="36" x="370.0243" y="508.6245">status</text><text fill="#000000" font-family="sans-serif" font-size="11" lengthAdjust="spacingAndGlyphs" textLength="88" x="370.0243" y="521.4292">postal_address</text><text fill="#000000" font-family="sans-serif" font-size="11" lengthAdjust="spacingAndGlyphs" textLength="46" x="370.0243" y="534.2339">subtotal</text><text fill="#000000" font-family="sans-serif" font-size="11" lengthAdjust="spacingAndGlyphs" textLength="48" x="370.0243" y="547.0386">discount</text><text fill="#000000" font-family="sans-serif" font-size="11" lengthAdjust="spacingAndGlyphs" textLength="70" x="370.0243" y="559.8433">liable_to_vat</text><text fill="#000000" font-family="sans-serif" font-size="11" lengthAdjust="spacingAndGlyphs" textLength="76" x="370.0243" y="572.6479">total_excl_tax</text><text fill="#000000" font-family="sans-serif" font-size="11" lengthAdjust="spacingAndGlyphs" textLength="46" x="370.0243" y="585.4526">tax_rate</text><text fill="#000000" font-family="sans-serif" font-size="11" lengthAdjust="spacingAndGlyphs" textLength="25" x="370.0243" y="598.2573">total</text><line style="stroke: #383838; stroke-width: 1.5;" x1="365.0243" x2="469.0243" y1="604.8516" y2="604.8516"/><!--MD5=[0a2ba4af162a0d0618c108ae27e0c268]
class Projekt--><rect fill="#F8F8F8" filter="url(#f1j7lb9anpi0kf)" height="86.4141" id="Projekt" style="stroke: #383838; stroke-width: 1.5;" width="76" x="302.0243" y="690"/><ellipse cx="317.0243" cy="706" fill="#C2C2C2" rx="11" ry="11" style="stroke: #383838; stroke-width: 1.0;"/><path d="M319.9931,711.6406 Q319.4149,711.9375 318.7743,712.0781 Q318.1337,712.2344 317.4306,712.2344 Q314.9306,712.2344 313.6024,710.5938 Q312.2899,708.9375 312.2899,705.8125 Q312.2899,702.6875 313.6024,701.0313 Q314.9306,699.375 317.4306,699.375 Q318.1337,699.375 318.7743,699.5313 Q319.4306,699.6875 319.9931,699.9844 L319.9931,702.7031 Q319.3681,702.125 318.7743,701.8594 Q318.1806,701.5781 317.5556,701.5781 Q316.2118,701.5781 315.5243,702.6563 Q314.8368,703.7188 314.8368,705.8125 Q314.8368,707.9063 315.5243,708.9844 Q316.2118,710.0469 317.5556,710.0469 Q318.1806,710.0469 318.7743,709.7813 Q319.3681,709.5 319.9931,708.9219 L319.9931,711.6406 Z "/><text fill="#000000" font-family="sans-serif" font-size="12" lengthAdjust="spacingAndGlyphs" textLength="44" x="331.0243" y="710.1543">Projekt</text><line style="stroke: #383838; stroke-width: 1.5;" x1="303.0243" x2="377.0243" y1="722" y2="722"/><text fill="#000000" font-family="sans-serif" font-size="11" lengthAdjust="spacingAndGlyphs" textLength="21" x="308.0243" y="736.2104">title</text><text fill="#000000" font-family="sans-serif" font-size="11" lengthAdjust="spacingAndGlyphs" textLength="63" x="308.0243" y="749.0151">description</text><text fill="#000000" font-family="sans-serif" font-size="11" lengthAdjust="spacingAndGlyphs" textLength="24" x="308.0243" y="761.8198">type</text><line style="stroke: #383838; stroke-width: 1.5;" x1="303.0243" x2="377.0243" y1="768.4141" y2="768.4141"/><!--MD5=[b5f27a75664da07ae6120e07225df8d5]
class Leistung--><rect fill="#F8F8F8" filter="url(#f1j7lb9anpi0kf)" height="163.2422" id="Leistung" style="stroke: #383838; stroke-width: 1.5;" width="110" x="288.0243" y="184"/><ellipse cx="314.2743" cy="200" fill="#C2C2C2" rx="11" ry="11" style="stroke: #383838; stroke-width: 1.0;"/><path d="M317.2431,205.6406 Q316.6649,205.9375 316.0243,206.0781 Q315.3837,206.2344 314.6806,206.2344 Q312.1806,206.2344 310.8524,204.5938 Q309.5399,202.9375 309.5399,199.8125 Q309.5399,196.6875 310.8524,195.0313 Q312.1806,193.375 314.6806,193.375 Q315.3837,193.375 316.0243,193.5313 Q316.6806,193.6875 317.2431,193.9844 L317.2431,196.7031 Q316.6181,196.125 316.0243,195.8594 Q315.4306,195.5781 314.8056,195.5781 Q313.4618,195.5781 312.7743,196.6563 Q312.0868,197.7188 312.0868,199.8125 Q312.0868,201.9063 312.7743,202.9844 Q313.4618,204.0469 314.8056,204.0469 Q315.4306,204.0469 316.0243,203.7813 Q316.6181,203.5 317.2431,202.9219 L317.2431,205.6406 Z "/><text fill="#000000" font-family="sans-serif" font-size="12" lengthAdjust="spacingAndGlyphs" textLength="53" x="330.7743" y="204.1543">Leistung</text><line style="stroke: #383838; stroke-width: 1.5;" x1="289.0243" x2="397.0243" y1="216" y2="216"/><text fill="#000000" font-family="sans-serif" font-size="11" lengthAdjust="spacingAndGlyphs" textLength="21" x="294.0243" y="230.2104">title</text><text fill="#000000" font-family="sans-serif" font-size="11" lengthAdjust="spacingAndGlyphs" textLength="63" x="294.0243" y="243.0151">description</text><text fill="#000000" font-family="sans-serif" font-size="11" lengthAdjust="spacingAndGlyphs" textLength="70" x="294.0243" y="255.8198">effort_hours</text><text fill="#000000" font-family="sans-serif" font-size="11" lengthAdjust="spacingAndGlyphs" textLength="60" x="294.0243" y="268.6245">effort_rate</text><text fill="#000000" font-family="sans-serif" font-size="11" lengthAdjust="spacingAndGlyphs" textLength="61" x="294.0243" y="281.4292">effort_type</text><text fill="#000000" font-family="sans-serif" font-size="11" lengthAdjust="spacingAndGlyphs" textLength="24" x="294.0243" y="294.2339">cost</text><text fill="#000000" font-family="sans-serif" font-size="11" lengthAdjust="spacingAndGlyphs" textLength="98" x="294.0243" y="307.0386">third_party_costs</text><text fill="#000000" font-family="sans-serif" font-size="11" lengthAdjust="spacingAndGlyphs" textLength="75" x="294.0243" y="319.8433">/service_cost</text><text fill="#000000" font-family="sans-serif" font-size="11" lengthAdjust="spacingAndGlyphs" textLength="84" x="294.0243" y="332.6479">/service_hours</text><line style="stroke: #383838; stroke-width: 1.5;" x1="289.0243" x2="397.0243" y1="339.2422" y2="339.2422"/><!--MD5=[9b8aaad7c44753e9fedfbbf05c52b076]
class Leistungstyp--><rect fill="#F8F8F8" filter="url(#f1j7lb9anpi0kf)" height="73.6094" id="Leistungstyp" style="stroke: #383838; stroke-width: 1.5;" width="111" x="413.5243" y="20.5"/><ellipse cx="428.5243" cy="36.5" fill="#C2C2C2" rx="11" ry="11" style="stroke: #383838; stroke-width: 1.0;"/><path d="M431.4931,42.1406 Q430.9149,42.4375 430.2743,42.5781 Q429.6337,42.7344 428.9306,42.7344 Q426.4306,42.7344 425.1024,41.0938 Q423.7899,39.4375 423.7899,36.3125 Q423.7899,33.1875 425.1024,31.5313 Q426.4306,29.875 428.9306,29.875 Q429.6337,29.875 430.2743,30.0313 Q430.9306,30.1875 431.4931,30.4844 L431.4931,33.2031 Q430.8681,32.625 430.2743,32.3594 Q429.6806,32.0781 429.0556,32.0781 Q427.7118,32.0781 427.0243,33.1563 Q426.3368,34.2188 426.3368,36.3125 Q426.3368,38.4063 427.0243,39.4844 Q427.7118,40.5469 429.0556,40.5469 Q429.6806,40.5469 430.2743,40.2813 Q430.8681,40 431.4931,39.4219 L431.4931,42.1406 Z "/><text fill="#000000" font-family="sans-serif" font-size="12" lengthAdjust="spacingAndGlyphs" textLength="79" x="442.5243" y="40.6543">Leistungstyp</text><line style="stroke: #383838; stroke-width: 1.5;" x1="414.5243" x2="523.5243" y1="52.5" y2="52.5"/><text fill="#000000" font-family="sans-serif" font-size="11" lengthAdjust="spacingAndGlyphs" textLength="21" x="419.5243" y="66.7104">title</text><text fill="#000000" font-family="sans-serif" font-size="11" lengthAdjust="spacingAndGlyphs" textLength="64" x="419.5243" y="79.5151">hourly_rate</text><line style="stroke: #383838; stroke-width: 1.5;" x1="414.5243" x2="523.5243" y1="86.1094" y2="86.1094"/><!--MD5=[3c85ed1c74d2fd8e0488dff9cf058b2b]
link User to Team--><path d="M114.0243,321.6489 C114.0243,372.8923 114.0243,446.7189 114.0243,487.8563 " fill="none" id="User-Team" style="stroke: #383838; stroke-width: 1.0;"/><text fill="#000000" font-family="sans-serif" font-size="13" lengthAdjust="spacingAndGlyphs" textLength="71" x="115.0243" y="390.0669">member of</text><polygon fill="#000000" points="146.0243,399.1328,149.0243,405.1328,152.0243,399.1328,146.0243,399.1328" style="stroke: #000000; stroke-width: 1.0;"/><text fill="#000000" font-family="sans-serif" font-size="13" lengthAdjust="spacingAndGlyphs" textLength="24" x="88.5618" y="341.4797">1..n</text><text fill="#000000" font-family="sans-serif" font-size="13" lengthAdjust="spacingAndGlyphs" textLength="24" x="87.5493" y="477.0899">0..n</text><!--MD5=[ba4368fe604d71362a6972de758f3a6a]
link Person to Organisation--><path d="M271.8721,927.0314 C269.5374,942.0612 269.2014,959.3072 275.0243,974 C279.3185,984.8357 286.2865,994.9397 294.0542,1003.8482 " fill="none" id="Person-Organisation" style="stroke: #383838; stroke-width: 1.0;"/><text fill="#000000" font-family="sans-serif" font-size="13" lengthAdjust="spacingAndGlyphs" textLength="82" x="276.0243" y="970.0669">employed by</text><polygon fill="#000000" points="312.5243,979.1328,315.5243,985.1328,318.5243,979.1328,312.5243,979.1328" style="stroke: #000000; stroke-width: 1.0;"/><text fill="#000000" font-family="sans-serif" font-size="13" lengthAdjust="spacingAndGlyphs" textLength="24" x="244.0647" y="946.7971">0..n</text><text fill="#000000" font-family="sans-serif" font-size="13" lengthAdjust="spacingAndGlyphs" textLength="24" x="260.0845" y="993.0081">0..1</text><!--MD5=[d5dcb37c922d829003275f3895717575]
link Erfasste Kosten to User--><path d="M32.4482,95.3981 C13.5859,111.5253 0.1993,131.7562 9.0243,154 C17.114,174.3905 30.8944,193.2185 45.8575,209.3735 " fill="none" id="Erfasste Kosten-User" style="stroke: #383838; stroke-width: 1.0;"/><text fill="#000000" font-family="sans-serif" font-size="13" lengthAdjust="spacingAndGlyphs" textLength="77" x="10.0243" y="150.0669">rendered by</text><polygon fill="#000000" points="44.0243,159.1328,47.0243,165.1328,50.0243,159.1328,44.0243,159.1328" style="stroke: #000000; stroke-width: 1.0;"/><text fill="#000000" font-family="sans-serif" font-size="13" lengthAdjust="spacingAndGlyphs" textLength="24" x="0.4482" y="95.5954">0..n</text><text fill="#000000" font-family="sans-serif" font-size="13" lengthAdjust="spacingAndGlyphs" textLength="8" x="28.6111" y="198.2953">1</text><!--MD5=[4cd937a824914bc32301abc57417b333]
link Erfasste Kosten to Leistung--><path d="M109.3511,107.3346 C115.2434,123.9646 124.0356,141.4374 137.0243,154 C164.9186,180.9793 184.3569,166.5602 219.0243,184 C242.4979,195.8087 266.9513,211.1457 287.8772,225.3247 " fill="none" id="Erfasste Kosten-Leistung" style="stroke: #383838; stroke-width: 1.0;"/><text fill="#000000" font-family="sans-serif" font-size="13" lengthAdjust="spacingAndGlyphs" textLength="63" x="138.0243" y="150.0669">logged on</text><polygon fill="#000000" points="204.0243,144.0664,210.0243,147.0664,204.0243,150.0664,204.0243,144.0664" style="stroke: #000000; stroke-width: 1.0;"/><text fill="#000000" font-family="sans-serif" font-size="13" lengthAdjust="spacingAndGlyphs" textLength="24" x="85.2564" y="127.4581">0..n</text><text fill="#000000" font-family="sans-serif" font-size="13" lengthAdjust="spacingAndGlyphs" textLength="8" x="271.9293" y="215.9779">1</text><!--MD5=[6897b31274537250c4037f7029016244]
link Erfasste Stunden to User--><path d="M270.8364,100.6804 C256.1354,117.4956 238.9706,136.8171 223.0243,154 C206.0829,172.2551 187.2407,191.7896 170.0519,209.3263 " fill="none" id="Erfasste Stunden-User" style="stroke: #383838; stroke-width: 1.0;"/><text fill="#000000" font-family="sans-serif" font-size="13" lengthAdjust="spacingAndGlyphs" textLength="77" x="239.0243" y="150.0669">rendered by</text><polygon fill="#000000" points="273.0243,159.1328,276.0243,165.1328,279.0243,159.1328,273.0243,159.1328" style="stroke: #000000; stroke-width: 1.0;"/><text fill="#000000" font-family="sans-serif" font-size="13" lengthAdjust="spacingAndGlyphs" textLength="24" x="238.6897" y="121.1179">0..n</text><text fill="#000000" font-family="sans-serif" font-size="13" lengthAdjust="spacingAndGlyphs" textLength="8" x="168.7179" y="198.242">1</text><!--MD5=[93a085ecc64eb3948b59e9b5d71bebdf]
link Erfasste Stunden to Leistung--><path d="M339.0829,100.5977 C345.6349,111.914 351.5982,124.4728 355.0243,137 C359.1027,151.9126 360.1108,168.1215 359.4074,183.8446 " fill="none" id="Erfasste Stunden-Leistung" style="stroke: #383838; stroke-width: 1.0;"/><text fill="#000000" font-family="sans-serif" font-size="13" lengthAdjust="spacingAndGlyphs" textLength="63" x="358.0243" y="150.0669">logged on</text><polygon fill="#000000" points="385.0243,159.1328,388.0243,165.1328,391.0243,159.1328,385.0243,159.1328" style="stroke: #000000; stroke-width: 1.0;"/><text fill="#000000" font-family="sans-serif" font-size="13" lengthAdjust="spacingAndGlyphs" textLength="24" x="318.2395" y="121.0215">0..n</text><text fill="#000000" font-family="sans-serif" font-size="13" lengthAdjust="spacingAndGlyphs" textLength="8" x="352.5103" y="172.9662">1</text><!--MD5=[8c9c7141a0755fb1e5229c011da04335]
link Offerte to Projekt--><path d="M383.0268,613.2072 C373.4384,639.9179 363.4722,667.6808 355.5513,689.746 " fill="none" id="Offerte-Projekt" style="stroke: #383838; stroke-width: 1.0;"/><text fill="#000000" font-family="sans-serif" font-size="13" lengthAdjust="spacingAndGlyphs" textLength="67" x="372.0243" y="656.0669">belongs to</text><polygon fill="#000000" points="401.0243,665.1328,404.0243,671.1328,407.0243,665.1328,401.0243,665.1328" style="stroke: #000000; stroke-width: 1.0;"/><text fill="#000000" font-family="sans-serif" font-size="13" lengthAdjust="spacingAndGlyphs" textLength="24" x="355.6489" y="632.7903">0..n</text><text fill="#000000" font-family="sans-serif" font-size="13" lengthAdjust="spacingAndGlyphs" textLength="8" x="349.3164" y="679.0197">1</text><!--MD5=[7b5ff52eb4ed3882909b17e2fce1d80a]
link Projekt to Person--><path d="M320.8493,776.3601 C316.7784,786.0488 312.6262,796.3218 309.0243,806 C303.3607,821.2175 297.7582,838.2346 293.1372,852.9521 " fill="none" id="Projekt-Person" style="stroke: #383838; stroke-width: 1.0;"/><text fill="#000000" font-family="sans-serif" font-size="13" lengthAdjust="spacingAndGlyphs" textLength="48" x="310.0243" y="819.0669">contact</text><polygon fill="#000000" points="329.5243,828.1328,332.5243,834.1328,335.5243,828.1328,329.5243,828.1328" style="stroke: #000000; stroke-width: 1.0;"/><text fill="#000000" font-family="sans-serif" font-size="13" lengthAdjust="spacingAndGlyphs" textLength="24" x="291.8808" y="796.5104">0..n</text><text fill="#000000" font-family="sans-serif" font-size="13" lengthAdjust="spacingAndGlyphs" textLength="24" x="268.9736" y="841.8537">0..1</text><!--MD5=[c983e4faa3132ec7fc1c7194f5a60c9c]
link Projekt to Organisation--><path d="M365.3208,776.1768 C369.748,785.7013 373.6818,795.9539 376.0243,806 C392.9794,878.7161 395.0726,901.8039 376.0243,974 C373.3292,984.2148 368.6787,994.5055 363.5364,1003.8526 " fill="none" id="Projekt-Organisation" style="stroke: #383838; stroke-width: 1.0;"/><text fill="#000000" font-family="sans-serif" font-size="13" lengthAdjust="spacingAndGlyphs" textLength="61" x="390.0243" y="894.5669">customer</text><polygon fill="#000000" points="416.0243,903.6328,419.0243,909.6328,422.0243,903.6328,416.0243,903.6328" style="stroke: #000000; stroke-width: 1.0;"/><text fill="#000000" font-family="sans-serif" font-size="13" lengthAdjust="spacingAndGlyphs" textLength="24" x="343.523" y="796.6137">0..n</text><text fill="#000000" font-family="sans-serif" font-size="13" lengthAdjust="spacingAndGlyphs" textLength="8" x="359.3682" y="993.0133">1</text><!--MD5=[c1c5db8156a385ee752af45e10f898d4]
link Leistung to Offerte--><path d="M366.9478,347.2925 C374.0841,371.691 381.9652,398.6361 389.322,423.7882 " fill="none" id="Leistung-Offerte" style="stroke: #383838; stroke-width: 1.0;"/><text fill="#000000" font-family="sans-serif" font-size="13" lengthAdjust="spacingAndGlyphs" textLength="74" x="381.0243" y="390.0669">offered with</text><polygon fill="#000000" points="413.5243,399.1328,416.5243,405.1328,419.5243,399.1328,413.5243,399.1328" style="stroke: #000000; stroke-width: 1.0;"/><text fill="#000000" font-family="sans-serif" font-size="13" lengthAdjust="spacingAndGlyphs" textLength="24" x="344.0097" y="367.3071">1..n</text><text fill="#000000" font-family="sans-serif" font-size="13" lengthAdjust="spacingAndGlyphs" textLength="24" x="362.2823" y="413.0403">0..1</text><!--MD5=[994d64182924101532ebe0d019f8b435]
link Leistung to Projekt--><path d="M342.5,347.1996 C341.8601,446.9217 340.8016,611.8644 340.3019,689.7405 " fill="none" id="Leistung-Projekt" style="stroke: #383838; stroke-width: 1.0;"/><text fill="#000000" font-family="sans-serif" font-size="13" lengthAdjust="spacingAndGlyphs" textLength="24" x="317.3846" y="367.206">0..n</text><text fill="#000000" font-family="sans-serif" font-size="13" lengthAdjust="spacingAndGlyphs" textLength="8" x="331.7319" y="679.0133">1</text><!--MD5=[165501fe97bb3456fd8c22426e91865f]
@startuml

skinparam monochrome true
skinparam classStereotypeFontSize 10

class "Team" {
  name
}

class "User" {
  email
  short_name
  full_name
  is_active
  enforce_same_week_logging
}

class "Organisation" {
  name
  is_private_person
}

class "Person" {
  given_name
  family_name
}

class "Erfasste Kosten" {
  rendered_on: date
  cost
  third_party_costs
  description
}

class "Erfasste Stunden" {
  rendered_on: date
  hours
  description
}

class "Offerte" {
  offered_on: date
  title
  description
  status
  postal_address
  subtotal
  discount
  liable_to_vat
  total_excl_tax
  tax_rate
  total
}

class "Projekt" {
  title
  description
  type
}

class "Leistung" {
  title
  description
  effort_hours
  effort_rate
  effort_type
  cost
  third_party_costs
  /service_cost
  /service_hours
}

class "Leistungstyp" {
  title
  hourly_rate
}

 User "1..n" - - "0..n" Team : member of >

 Person "0..n" - - "0..1" Organisation : employed by >

 "Erfasste Kosten" "0..n" - - "1" User : rendered by >

 "Erfasste Kosten" "0..n" - - "1" Leistung : logged on >

 "Erfasste Stunden" "0..n" - - "1" User : rendered by >

 "Erfasste Stunden" "0..n" - - "1" Leistung : logged on >

 Offerte "0..n" - - "1" Projekt : belongs to >

 Projekt "0..n" - - "0..1" Person : contact >

 Projekt "0..n" - - "1" Organisation : customer >

 Leistung "1..n" - - "0..1" Offerte : offered with >

 Leistung "0..n" - - "1" Projekt

@enduml

PlantUML version 1.2020.01(Sun Feb 16 18:40:32 CET 2020)
(GPL source distribution)
Java Runtime: OpenJDK Runtime Environment
JVM: OpenJDK 64-Bit Server VM
Java Version: 11.0.6+10-post-Ubuntu-1ubuntu118.04.1
Operating System: Linux
Default Encoding: UTF-8
Language: en
Country: US
--></g></svg>