<?xml version="1.0" encoding="UTF-8" standalone="no"?><svg xmlns="http://www.w3.org/2000/svg" xmlns:xlink="http://www.w3.org/1999/xlink" contentScriptType="application/ecmascript" contentStyleType="text/css" height="1088px" preserveAspectRatio="none" style="width:613px;height:1088px;" version="1.1" viewBox="0 0 613 1088" width="613px" zoomAndPan="magnify"><defs><filter height="300%" id="f15s2bxchp4hnz" width="300%" x="-1" y="-1"><feGaussianBlur result="blurOut" stdDeviation="2.0"/><feColorMatrix in="blurOut" result="blurOut2" type="matrix" values="0 0 0 0 0 0 0 0 0 0 0 0 0 0 0 0 0 0 .4 0"/><feOffset dx="4.0" dy="4.0" in="blurOut2" result="blurOut3"/><feBlend in="SourceGraphic" in2="blurOut3" mode="normal"/></filter></defs><g><!--MD5=[4373b61537c0c9feb47fdce36ba9ae9b]
class accounts_team--><rect fill="#F8F8F8" filter="url(#f15s2bxchp4hnz)" height="60.8047" id="accounts_team" style="stroke: #383838; stroke-width: 1.5;" width="128" x="53.8162" y="488"/><ellipse cx="68.8162" cy="504" fill="#C2C2C2" rx="11" ry="11" style="stroke: #383838; stroke-width: 1.0;"/><path d="M71.785,509.6406 Q71.2068,509.9375 70.5662,510.0781 Q69.9256,510.2344 69.2225,510.2344 Q66.7225,510.2344 65.3943,508.5938 Q64.0818,506.9375 64.0818,503.8125 Q64.0818,500.6875 65.3943,499.0313 Q66.7225,497.375 69.2225,497.375 Q69.9256,497.375 70.5662,497.5313 Q71.2225,497.6875 71.785,497.9844 L71.785,500.7031 Q71.16,500.125 70.5662,499.8594 Q69.9725,499.5781 69.3475,499.5781 Q68.0037,499.5781 67.3162,500.6563 Q66.6287,501.7188 66.6287,503.8125 Q66.6287,505.9063 67.3162,506.9844 Q68.0037,508.0469 69.3475,508.0469 Q69.9725,508.0469 70.5662,507.7813 Q71.16,507.5 71.785,506.9219 L71.785,509.6406 Z "/><text fill="#000000" font-family="sans-serif" font-size="12" lengthAdjust="spacingAndGlyphs" textLength="96" x="82.8162" y="508.1543">accounts_team</text><line style="stroke: #383838; stroke-width: 1.5;" x1="54.8162" x2="180.8162" y1="520" y2="520"/><text fill="#000000" font-family="sans-serif" font-size="11" lengthAdjust="spacingAndGlyphs" textLength="32" x="59.8162" y="534.2104">name</text><line style="stroke: #383838; stroke-width: 1.5;" x1="54.8162" x2="180.8162" y1="540.8047" y2="540.8047"/><!--MD5=[edac2e4ca36e0d56bdb605450ddf2aef]
class accounts_user--><rect fill="#F8F8F8" filter="url(#f15s2bxchp4hnz)" height="112.0234" id="accounts_user" style="stroke: #383838; stroke-width: 1.5;" width="175" x="30.3162" y="209.5"/><ellipse cx="68.2662" cy="225.5" fill="#C2C2C2" rx="11" ry="11" style="stroke: #383838; stroke-width: 1.0;"/><path d="M71.235,231.1406 Q70.6568,231.4375 70.0162,231.5781 Q69.3756,231.7344 68.6725,231.7344 Q66.1725,231.7344 64.8443,230.0938 Q63.5318,228.4375 63.5318,225.3125 Q63.5318,222.1875 64.8443,220.5313 Q66.1725,218.875 68.6725,218.875 Q69.3756,218.875 70.0162,219.0313 Q70.6725,219.1875 71.235,219.4844 L71.235,222.2031 Q70.61,221.625 70.0162,221.3594 Q69.4225,221.0781 68.7975,221.0781 Q67.4537,221.0781 66.7662,222.1563 Q66.0787,223.2188 66.0787,225.3125 Q66.0787,227.4063 66.7662,228.4844 Q67.4537,229.5469 68.7975,229.5469 Q69.4225,229.5469 70.0162,229.2813 Q70.61,229 71.235,228.4219 L71.235,231.1406 Z "/><text fill="#000000" font-family="sans-serif" font-size="12" lengthAdjust="spacingAndGlyphs" textLength="92" x="87.3662" y="229.6543">accounts_user</text><line style="stroke: #383838; stroke-width: 1.5;" x1="31.3162" x2="204.3162" y1="241.5" y2="241.5"/><text fill="#000000" font-family="sans-serif" font-size="11" lengthAdjust="spacingAndGlyphs" textLength="31" x="36.3162" y="255.7104">email</text><text fill="#000000" font-family="sans-serif" font-size="11" lengthAdjust="spacingAndGlyphs" textLength="68" x="36.3162" y="268.5151">short_name</text><text fill="#000000" font-family="sans-serif" font-size="11" lengthAdjust="spacingAndGlyphs" textLength="55" x="36.3162" y="281.3198">full_name</text><text fill="#000000" font-family="sans-serif" font-size="11" lengthAdjust="spacingAndGlyphs" textLength="49" x="36.3162" y="294.1245">is_active</text><text fill="#000000" font-family="sans-serif" font-size="11" lengthAdjust="spacingAndGlyphs" textLength="163" x="36.3162" y="306.9292">enforce_same_week_logging</text><line style="stroke: #383838; stroke-width: 1.5;" x1="31.3162" x2="204.3162" y1="313.5234" y2="313.5234"/><!--MD5=[6fbb9da3c6d2fabb67657157c1a7d711]
class contacts_organization--><rect fill="#F8F8F8" filter="url(#f15s2bxchp4hnz)" height="73.6094" id="contacts_organization" style="stroke: #383838; stroke-width: 1.5;" width="170" x="265.8162" y="1004"/><ellipse cx="280.8162" cy="1020" fill="#C2C2C2" rx="11" ry="11" style="stroke: #383838; stroke-width: 1.0;"/><path d="M283.785,1025.6406 Q283.2068,1025.9375 282.5662,1026.0781 Q281.9256,1026.2344 281.2225,1026.2344 Q278.7225,1026.2344 277.3943,1024.5938 Q276.0818,1022.9375 276.0818,1019.8125 Q276.0818,1016.6875 277.3943,1015.0313 Q278.7225,1013.375 281.2225,1013.375 Q281.9256,1013.375 282.5662,1013.5313 Q283.2225,1013.6875 283.785,1013.9844 L283.785,1016.7031 Q283.16,1016.125 282.5662,1015.8594 Q281.9725,1015.5781 281.3475,1015.5781 Q280.0037,1015.5781 279.3162,1016.6563 Q278.6287,1017.7188 278.6287,1019.8125 Q278.6287,1021.9063 279.3162,1022.9844 Q280.0037,1024.0469 281.3475,1024.0469 Q281.9725,1024.0469 282.5662,1023.7813 Q283.16,1023.5 283.785,1022.9219 L283.785,1025.6406 Z "/><text fill="#000000" font-family="sans-serif" font-size="12" lengthAdjust="spacingAndGlyphs" textLength="138" x="294.8162" y="1024.1543">contacts_organization</text><line style="stroke: #383838; stroke-width: 1.5;" x1="266.8162" x2="434.8162" y1="1036" y2="1036"/><text fill="#000000" font-family="sans-serif" font-size="11" lengthAdjust="spacingAndGlyphs" textLength="32" x="271.8162" y="1050.2104">name</text><text fill="#000000" font-family="sans-serif" font-size="11" lengthAdjust="spacingAndGlyphs" textLength="101" x="271.8162" y="1063.0151">is_private_person</text><line style="stroke: #383838; stroke-width: 1.5;" x1="266.8162" x2="434.8162" y1="1069.6094" y2="1069.6094"/><!--MD5=[8bab42b44cf273901c1412d7d305887e]
class contacts_person--><rect fill="#F8F8F8" filter="url(#f15s2bxchp4hnz)" height="73.6094" id="contacts_person" style="stroke: #383838; stroke-width: 1.5;" width="137" x="212.3162" y="853"/><ellipse cx="227.3162" cy="869" fill="#C2C2C2" rx="11" ry="11" style="stroke: #383838; stroke-width: 1.0;"/><path d="M230.285,874.6406 Q229.7068,874.9375 229.0662,875.0781 Q228.4256,875.2344 227.7225,875.2344 Q225.2225,875.2344 223.8943,873.5938 Q222.5818,871.9375 222.5818,868.8125 Q222.5818,865.6875 223.8943,864.0313 Q225.2225,862.375 227.7225,862.375 Q228.4256,862.375 229.0662,862.5313 Q229.7225,862.6875 230.285,862.9844 L230.285,865.7031 Q229.66,865.125 229.0662,864.8594 Q228.4725,864.5781 227.8475,864.5781 Q226.5037,864.5781 225.8162,865.6563 Q225.1287,866.7188 225.1287,868.8125 Q225.1287,870.9063 225.8162,871.9844 Q226.5037,873.0469 227.8475,873.0469 Q228.4725,873.0469 229.0662,872.7813 Q229.66,872.5 230.285,871.9219 L230.285,874.6406 Z "/><text fill="#000000" font-family="sans-serif" font-size="12" lengthAdjust="spacingAndGlyphs" textLength="105" x="241.3162" y="873.1543">contacts_person</text><line style="stroke: #383838; stroke-width: 1.5;" x1="213.3162" x2="348.3162" y1="885" y2="885"/><text fill="#000000" font-family="sans-serif" font-size="11" lengthAdjust="spacingAndGlyphs" textLength="68" x="218.3162" y="899.2104">given_name</text><text fill="#000000" font-family="sans-serif" font-size="11" lengthAdjust="spacingAndGlyphs" textLength="72" x="218.3162" y="912.0151">family_name</text><line style="stroke: #383838; stroke-width: 1.5;" x1="213.3162" x2="348.3162" y1="918.6094" y2="918.6094"/><!--MD5=[33493a4039320671629f3adc51d21773]
class logbook_loggedcost--><rect fill="#F8F8F8" filter="url(#f15s2bxchp4hnz)" height="99.2188" id="logbook_loggedcost" style="stroke: #383838; stroke-width: 1.5;" width="158" x="21.8162" y="8"/><ellipse cx="36.8162" cy="24" fill="#C2C2C2" rx="11" ry="11" style="stroke: #383838; stroke-width: 1.0;"/><path d="M39.785,29.6406 Q39.2068,29.9375 38.5662,30.0781 Q37.9256,30.2344 37.2225,30.2344 Q34.7225,30.2344 33.3943,28.5938 Q32.0818,26.9375 32.0818,23.8125 Q32.0818,20.6875 33.3943,19.0313 Q34.7225,17.375 37.2225,17.375 Q37.9256,17.375 38.5662,17.5313 Q39.2225,17.6875 39.785,17.9844 L39.785,20.7031 Q39.16,20.125 38.5662,19.8594 Q37.9725,19.5781 37.3475,19.5781 Q36.0037,19.5781 35.3162,20.6563 Q34.6287,21.7188 34.6287,23.8125 Q34.6287,25.9063 35.3162,26.9844 Q36.0037,28.0469 37.3475,28.0469 Q37.9725,28.0469 38.5662,27.7813 Q39.16,27.5 39.785,26.9219 L39.785,29.6406 Z "/><text fill="#000000" font-family="sans-serif" font-size="12" lengthAdjust="spacingAndGlyphs" textLength="126" x="50.8162" y="28.1543">logbook_loggedcost</text><line style="stroke: #383838; stroke-width: 1.5;" x1="22.8162" x2="178.8162" y1="40" y2="40"/><text fill="#000000" font-family="sans-serif" font-size="11" lengthAdjust="spacingAndGlyphs" textLength="72" x="27.8162" y="54.2104">rendered_on</text><text fill="#000000" font-family="sans-serif" font-size="11" lengthAdjust="spacingAndGlyphs" textLength="24" x="27.8162" y="67.0151">cost</text><text fill="#000000" font-family="sans-serif" font-size="11" lengthAdjust="spacingAndGlyphs" textLength="98" x="27.8162" y="79.8198">third_party_costs</text><text fill="#000000" font-family="sans-serif" font-size="11" lengthAdjust="spacingAndGlyphs" textLength="63" x="27.8162" y="92.6245">description</text><line style="stroke: #383838; stroke-width: 1.5;" x1="22.8162" x2="178.8162" y1="99.2188" y2="99.2188"/><!--MD5=[2578bf1bff7832cc14dc9ac97053ce9a]
class logbook_loggedhours--><rect fill="#F8F8F8" filter="url(#f15s2bxchp4hnz)" height="86.4141" id="logbook_loggedhours" style="stroke: #383838; stroke-width: 1.5;" width="167" x="240.3162" y="14.5"/><ellipse cx="255.3162" cy="30.5" fill="#C2C2C2" rx="11" ry="11" style="stroke: #383838; stroke-width: 1.0;"/><path d="M258.285,36.1406 Q257.7068,36.4375 257.0662,36.5781 Q256.4256,36.7344 255.7225,36.7344 Q253.2225,36.7344 251.8943,35.0938 Q250.5818,33.4375 250.5818,30.3125 Q250.5818,27.1875 251.8943,25.5313 Q253.2225,23.875 255.7225,23.875 Q256.4256,23.875 257.0662,24.0313 Q257.7225,24.1875 258.285,24.4844 L258.285,27.2031 Q257.66,26.625 257.0662,26.3594 Q256.4725,26.0781 255.8475,26.0781 Q254.5037,26.0781 253.8162,27.1563 Q253.1287,28.2188 253.1287,30.3125 Q253.1287,32.4063 253.8162,33.4844 Q254.5037,34.5469 255.8475,34.5469 Q256.4725,34.5469 257.0662,34.2813 Q257.66,34 258.285,33.4219 L258.285,36.1406 Z "/><text fill="#000000" font-family="sans-serif" font-size="12" lengthAdjust="spacingAndGlyphs" textLength="135" x="269.3162" y="34.6543">logbook_loggedhours</text><line style="stroke: #383838; stroke-width: 1.5;" x1="241.3162" x2="406.3162" y1="46.5" y2="46.5"/><text fill="#000000" font-family="sans-serif" font-size="11" lengthAdjust="spacingAndGlyphs" textLength="72" x="246.3162" y="60.7104">rendered_on</text><text fill="#000000" font-family="sans-serif" font-size="11" lengthAdjust="spacingAndGlyphs" textLength="33" x="246.3162" y="73.5151">hours</text><text fill="#000000" font-family="sans-serif" font-size="11" lengthAdjust="spacingAndGlyphs" textLength="63" x="246.3162" y="86.3198">description</text><line style="stroke: #383838; stroke-width: 1.5;" x1="241.3162" x2="406.3162" y1="92.9141" y2="92.9141"/><!--MD5=[3549e535170121b9b8026ac8e1221bf7]
class offers_offer--><rect fill="#F8F8F8" filter="url(#f15s2bxchp4hnz)" height="188.8516" id="offers_offer" style="stroke: #383838; stroke-width: 1.5;" width="103" x="375.3162" y="424"/><ellipse cx="390.3162" cy="440" fill="#C2C2C2" rx="11" ry="11" style="stroke: #383838; stroke-width: 1.0;"/><path d="M393.285,445.6406 Q392.7068,445.9375 392.0662,446.0781 Q391.4256,446.2344 390.7225,446.2344 Q388.2225,446.2344 386.8943,444.5938 Q385.5818,442.9375 385.5818,439.8125 Q385.5818,436.6875 386.8943,435.0313 Q388.2225,433.375 390.7225,433.375 Q391.4256,433.375 392.0662,433.5313 Q392.7225,433.6875 393.285,433.9844 L393.285,436.7031 Q392.66,436.125 392.0662,435.8594 Q391.4725,435.5781 390.8475,435.5781 Q389.5037,435.5781 388.8162,436.6563 Q388.1287,437.7188 388.1287,439.8125 Q388.1287,441.9063 388.8162,442.9844 Q389.5037,444.0469 390.8475,444.0469 Q391.4725,444.0469 392.0662,443.7813 Q392.66,443.5 393.285,442.9219 L393.285,445.6406 Z "/><text fill="#000000" font-family="sans-serif" font-size="12" lengthAdjust="spacingAndGlyphs" textLength="71" x="404.3162" y="444.1543">offers_offer</text><line style="stroke: #383838; stroke-width: 1.5;" x1="376.3162" x2="477.3162" y1="456" y2="456"/><text fill="#000000" font-family="sans-serif" font-size="11" lengthAdjust="spacingAndGlyphs" textLength="61" x="381.3162" y="470.2104">offered_on</text><text fill="#000000" font-family="sans-serif" font-size="11" lengthAdjust="spacingAndGlyphs" textLength="21" x="381.3162" y="483.0151">title</text><text fill="#000000" font-family="sans-serif" font-size="11" lengthAdjust="spacingAndGlyphs" textLength="63" x="381.3162" y="495.8198">description</text><text fill="#000000" font-family="sans-serif" font-size="11" lengthAdjust="spacingAndGlyphs" textLength="36" x="381.3162" y="508.6245">status</text><text fill="#000000" font-family="sans-serif" font-size="11" lengthAdjust="spacingAndGlyphs" textLength="88" x="381.3162" y="521.4292">postal_address</text><text fill="#000000" font-family="sans-serif" font-size="11" lengthAdjust="spacingAndGlyphs" textLength="46" x="381.3162" y="534.2339">subtotal</text><text fill="#000000" font-family="sans-serif" font-size="11" lengthAdjust="spacingAndGlyphs" textLength="48" x="381.3162" y="547.0386">discount</text><text fill="#000000" font-family="sans-serif" font-size="11" lengthAdjust="spacingAndGlyphs" textLength="70" x="381.3162" y="559.8433">liable_to_vat</text><text fill="#000000" font-family="sans-serif" font-size="11" lengthAdjust="spacingAndGlyphs" textLength="76" x="381.3162" y="572.6479">total_excl_tax</text><text fill="#000000" font-family="sans-serif" font-size="11" lengthAdjust="spacingAndGlyphs" textLength="46" x="381.3162" y="585.4526">tax_rate</text><text fill="#000000" font-family="sans-serif" font-size="11" lengthAdjust="spacingAndGlyphs" textLength="25" x="381.3162" y="598.2573">total</text><line style="stroke: #383838; stroke-width: 1.5;" x1="376.3162" x2="477.3162" y1="604.8516" y2="604.8516"/><!--MD5=[e660735fd7bf51757492b5b9fe2d43df]
class projects_project--><rect fill="#F8F8F8" filter="url(#f15s2bxchp4hnz)" height="86.4141" id="projects_project" style="stroke: #383838; stroke-width: 1.5;" width="133" x="284.3162" y="690"/><ellipse cx="299.3162" cy="706" fill="#C2C2C2" rx="11" ry="11" style="stroke: #383838; stroke-width: 1.0;"/><path d="M302.285,711.6406 Q301.7068,711.9375 301.0662,712.0781 Q300.4256,712.2344 299.7225,712.2344 Q297.2225,712.2344 295.8943,710.5938 Q294.5818,708.9375 294.5818,705.8125 Q294.5818,702.6875 295.8943,701.0313 Q297.2225,699.375 299.7225,699.375 Q300.4256,699.375 301.0662,699.5313 Q301.7225,699.6875 302.285,699.9844 L302.285,702.7031 Q301.66,702.125 301.0662,701.8594 Q300.4725,701.5781 299.8475,701.5781 Q298.5037,701.5781 297.8162,702.6563 Q297.1287,703.7188 297.1287,705.8125 Q297.1287,707.9063 297.8162,708.9844 Q298.5037,710.0469 299.8475,710.0469 Q300.4725,710.0469 301.0662,709.7813 Q301.66,709.5 302.285,708.9219 L302.285,711.6406 Z "/><text fill="#000000" font-family="sans-serif" font-size="12" lengthAdjust="spacingAndGlyphs" textLength="101" x="313.3162" y="710.1543">projects_project</text><line style="stroke: #383838; stroke-width: 1.5;" x1="285.3162" x2="416.3162" y1="722" y2="722"/><text fill="#000000" font-family="sans-serif" font-size="11" lengthAdjust="spacingAndGlyphs" textLength="21" x="290.3162" y="736.2104">title</text><text fill="#000000" font-family="sans-serif" font-size="11" lengthAdjust="spacingAndGlyphs" textLength="63" x="290.3162" y="749.0151">description</text><text fill="#000000" font-family="sans-serif" font-size="11" lengthAdjust="spacingAndGlyphs" textLength="24" x="290.3162" y="761.8198">type</text><line style="stroke: #383838; stroke-width: 1.5;" x1="285.3162" x2="416.3162" y1="768.4141" y2="768.4141"/><!--MD5=[8d73843d6ff06f50eaea090e51ab563b]
class projects_service--><rect fill="#F8F8F8" filter="url(#f15s2bxchp4hnz)" height="163.2422" id="projects_service" style="stroke: #383838; stroke-width: 1.5;" width="133" x="288.3162" y="184"/><ellipse cx="303.3162" cy="200" fill="#C2C2C2" rx="11" ry="11" style="stroke: #383838; stroke-width: 1.0;"/><path d="M306.285,205.6406 Q305.7068,205.9375 305.0662,206.0781 Q304.4256,206.2344 303.7225,206.2344 Q301.2225,206.2344 299.8943,204.5938 Q298.5818,202.9375 298.5818,199.8125 Q298.5818,196.6875 299.8943,195.0313 Q301.2225,193.375 303.7225,193.375 Q304.4256,193.375 305.0662,193.5313 Q305.7225,193.6875 306.285,193.9844 L306.285,196.7031 Q305.66,196.125 305.0662,195.8594 Q304.4725,195.5781 303.8475,195.5781 Q302.5037,195.5781 301.8162,196.6563 Q301.1287,197.7188 301.1287,199.8125 Q301.1287,201.9063 301.8162,202.9844 Q302.5037,204.0469 303.8475,204.0469 Q304.4725,204.0469 305.0662,203.7813 Q305.66,203.5 306.285,202.9219 L306.285,205.6406 Z "/><text fill="#000000" font-family="sans-serif" font-size="12" lengthAdjust="spacingAndGlyphs" textLength="101" x="317.3162" y="204.1543">projects_service</text><line style="stroke: #383838; stroke-width: 1.5;" x1="289.3162" x2="420.3162" y1="216" y2="216"/><text fill="#000000" font-family="sans-serif" font-size="11" lengthAdjust="spacingAndGlyphs" textLength="21" x="294.3162" y="230.2104">title</text><text fill="#000000" font-family="sans-serif" font-size="11" lengthAdjust="spacingAndGlyphs" textLength="63" x="294.3162" y="243.0151">description</text><text fill="#000000" font-family="sans-serif" font-size="11" lengthAdjust="spacingAndGlyphs" textLength="70" x="294.3162" y="255.8198">effort_hours</text><text fill="#000000" font-family="sans-serif" font-size="11" lengthAdjust="spacingAndGlyphs" textLength="60" x="294.3162" y="268.6245">effort_rate</text><text fill="#000000" font-family="sans-serif" font-size="11" lengthAdjust="spacingAndGlyphs" textLength="61" x="294.3162" y="281.4292">effort_type</text><text fill="#000000" font-family="sans-serif" font-size="11" lengthAdjust="spacingAndGlyphs" textLength="24" x="294.3162" y="294.2339">cost</text><text fill="#000000" font-family="sans-serif" font-size="11" lengthAdjust="spacingAndGlyphs" textLength="98" x="294.3162" y="307.0386">third_party_costs</text><text fill="#000000" font-family="sans-serif" font-size="11" lengthAdjust="spacingAndGlyphs" textLength="75" x="294.3162" y="319.8433">/service_cost</text><text fill="#000000" font-family="sans-serif" font-size="11" lengthAdjust="spacingAndGlyphs" textLength="84" x="294.3162" y="332.6479">/service_hours</text><line style="stroke: #383838; stroke-width: 1.5;" x1="289.3162" x2="420.3162" y1="339.2422" y2="339.2422"/><!--MD5=[9e72474814bde7f06266c656178dddd1]
class services_servicetype--><rect fill="#F8F8F8" filter="url(#f15s2bxchp4hnz)" height="73.6094" id="services_servicetype" style="stroke: #383838; stroke-width: 1.5;" width="160" x="442.8162" y="20.5"/><ellipse cx="457.8162" cy="36.5" fill="#C2C2C2" rx="11" ry="11" style="stroke: #383838; stroke-width: 1.0;"/><path d="M460.785,42.1406 Q460.2068,42.4375 459.5662,42.5781 Q458.9256,42.7344 458.2225,42.7344 Q455.7225,42.7344 454.3943,41.0938 Q453.0818,39.4375 453.0818,36.3125 Q453.0818,33.1875 454.3943,31.5313 Q455.7225,29.875 458.2225,29.875 Q458.9256,29.875 459.5662,30.0313 Q460.2225,30.1875 460.785,30.4844 L460.785,33.2031 Q460.16,32.625 459.5662,32.3594 Q458.9725,32.0781 458.3475,32.0781 Q457.0037,32.0781 456.3162,33.1563 Q455.6287,34.2188 455.6287,36.3125 Q455.6287,38.4063 456.3162,39.4844 Q457.0037,40.5469 458.3475,40.5469 Q458.9725,40.5469 459.5662,40.2813 Q460.16,40 460.785,39.4219 L460.785,42.1406 Z "/><text fill="#000000" font-family="sans-serif" font-size="12" lengthAdjust="spacingAndGlyphs" textLength="128" x="471.8162" y="40.6543">services_servicetype</text><line style="stroke: #383838; stroke-width: 1.5;" x1="443.8162" x2="601.8162" y1="52.5" y2="52.5"/><text fill="#000000" font-family="sans-serif" font-size="11" lengthAdjust="spacingAndGlyphs" textLength="21" x="448.8162" y="66.7104">title</text><text fill="#000000" font-family="sans-serif" font-size="11" lengthAdjust="spacingAndGlyphs" textLength="64" x="448.8162" y="79.5151">hourly_rate</text><line style="stroke: #383838; stroke-width: 1.5;" x1="443.8162" x2="601.8162" y1="86.1094" y2="86.1094"/><!--MD5=[65eb5fbc04fa3261686fb951a0611b19]
link accounts_user to accounts_team--><path d="M117.8162,321.6489 C117.8162,372.8923 117.8162,446.7189 117.8162,487.8563 " fill="none" id="accounts_user-accounts_team" style="stroke: #383838; stroke-width: 1.0;"/><text fill="#000000" font-family="sans-serif" font-size="13" lengthAdjust="spacingAndGlyphs" textLength="71" x="118.8162" y="390.0669">member of</text><polygon fill="#000000" points="149.8162,399.1328,152.8162,405.1328,155.8162,399.1328,149.8162,399.1328" style="stroke: #000000; stroke-width: 1.0;"/><text fill="#000000" font-family="sans-serif" font-size="13" lengthAdjust="spacingAndGlyphs" textLength="24" x="92.3537" y="341.4797">1..n</text><text fill="#000000" font-family="sans-serif" font-size="13" lengthAdjust="spacingAndGlyphs" textLength="24" x="91.3412" y="477.0899">0..n</text><!--MD5=[4c8e0166e8c72ef28731d60f4a4c28dc]
link contacts_person to contacts_organization--><path d="M283.9261,927.1731 C286.1849,942.2246 290.0844,959.4485 296.8162,974 C301.6461,984.4404 308.4558,994.6618 315.6175,1003.8512 " fill="none" id="contacts_person-contacts_organization" style="stroke: #383838; stroke-width: 1.0;"/><text fill="#000000" font-family="sans-serif" font-size="13" lengthAdjust="spacingAndGlyphs" textLength="82" x="297.8162" y="970.0669">employed by</text><polygon fill="#000000" points="334.3162,979.1328,337.3162,985.1328,340.3162,979.1328,334.3162,979.1328" style="stroke: #000000; stroke-width: 1.0;"/><text fill="#000000" font-family="sans-serif" font-size="13" lengthAdjust="spacingAndGlyphs" textLength="24" x="258.4537" y="946.6823">0..n</text><text fill="#000000" font-family="sans-serif" font-size="13" lengthAdjust="spacingAndGlyphs" textLength="24" x="283.2102" y="993.0116">0..1</text><!--MD5=[ad3c8f6d140acee95779301cd9af27af]
link logbook_loggedcost to accounts_user--><path d="M30,107.0292 C18.6016,120.9953 12.3751,137.0445 18.8162,154 C26.4923,174.2066 39.6933,193.0939 53.9985,209.3726 " fill="none" id="logbook_loggedcost-accounts_user" style="stroke: #383838; stroke-width: 1.0;"/><text fill="#000000" font-family="sans-serif" font-size="13" lengthAdjust="spacingAndGlyphs" textLength="77" x="19.8162" y="150.0669">rendered by</text><polygon fill="#000000" points="53.8162,159.1328,56.8162,165.1328,59.8162,159.1328,53.8162,159.1328" style="stroke: #000000; stroke-width: 1.0;"/><text fill="#000000" font-family="sans-serif" font-size="13" lengthAdjust="spacingAndGlyphs" textLength="24" x="-5.646" y="127.1098">0..n</text><text fill="#000000" font-family="sans-serif" font-size="13" lengthAdjust="spacingAndGlyphs" textLength="8" x="37.3094" y="198.2942">1</text><!--MD5=[9648179ad9a01b0ca7abe9e964dd4098]
link logbook_loggedcost to projects_service--><path d="M116.1282,107.2216 C123.2617,123.841 133.2486,141.336 146.8162,154 C173.3628,178.7788 190.3504,167.7306 222.8162,184 C244.7277,194.9804 267.7407,208.4526 288.3035,221.2576 " fill="none" id="logbook_loggedcost-projects_service" style="stroke: #383838; stroke-width: 1.0;"/><text fill="#000000" font-family="sans-serif" font-size="13" lengthAdjust="spacingAndGlyphs" textLength="63" x="147.8162" y="150.0669">logged on</text><polygon fill="#000000" points="213.8162,144.0664,219.8162,147.0664,213.8162,150.0664,213.8162,144.0664" style="stroke: #000000; stroke-width: 1.0;"/><text fill="#000000" font-family="sans-serif" font-size="13" lengthAdjust="spacingAndGlyphs" textLength="24" x="92.594" y="127.3292">0..n</text><text fill="#000000" font-family="sans-serif" font-size="13" lengthAdjust="spacingAndGlyphs" textLength="8" x="272.1505" y="212.3355">1</text><!--MD5=[53f41392ede9b79d9f59e5f6cd2821df]
link logbook_loggedhours to accounts_user--><path d="M283.9054,100.6464 C268.1539,117.4572 249.7943,136.7846 232.8162,154 C214.8514,172.2158 194.9465,191.7392 176.8161,209.2779 " fill="none" id="logbook_loggedhours-accounts_user" style="stroke: #383838; stroke-width: 1.0;"/><text fill="#000000" font-family="sans-serif" font-size="13" lengthAdjust="spacingAndGlyphs" textLength="77" x="249.8162" y="150.0669">rendered by</text><polygon fill="#000000" points="283.8162,159.1328,286.8162,165.1328,289.8162,159.1328,283.8162,159.1328" style="stroke: #000000; stroke-width: 1.0;"/><text fill="#000000" font-family="sans-serif" font-size="13" lengthAdjust="spacingAndGlyphs" textLength="24" x="251.3077" y="121.0783">0..n</text><text fill="#000000" font-family="sans-serif" font-size="13" lengthAdjust="spacingAndGlyphs" textLength="8" x="175.5192" y="198.5853">1</text><!--MD5=[c98dd9f2e51a053dfbea09da7ef32faa]
link logbook_loggedhours to projects_service--><path d="M350.7291,100.6045 C356.5272,112.0211 361.8131,124.625 364.8162,137 C368.4573,152.0043 369.4092,168.2555 368.857,183.9914 " fill="none" id="logbook_loggedhours-projects_service" style="stroke: #383838; stroke-width: 1.0;"/><text fill="#000000" font-family="sans-serif" font-size="13" lengthAdjust="spacingAndGlyphs" textLength="63" x="367.8162" y="150.0669">logged on</text><polygon fill="#000000" points="394.8162,159.1328,397.8162,165.1328,400.8162,159.1328,394.8162,159.1328" style="stroke: #000000; stroke-width: 1.0;"/><text fill="#000000" font-family="sans-serif" font-size="13" lengthAdjust="spacingAndGlyphs" textLength="24" x="329.199" y="121.0295">0..n</text><text fill="#000000" font-family="sans-serif" font-size="13" lengthAdjust="spacingAndGlyphs" textLength="8" x="361.7826" y="172.8478">1</text><!--MD5=[a8073bdde792111b5cbe6dcfc6920dc4]
link offers_offer to projects_project--><path d="M393.2602,613.2072 C383.7963,639.9179 373.9596,667.6808 366.1416,689.746 " fill="none" id="offers_offer-projects_project" style="stroke: #383838; stroke-width: 1.0;"/><text fill="#000000" font-family="sans-serif" font-size="13" lengthAdjust="spacingAndGlyphs" textLength="67" x="382.8162" y="656.0669">belongs to</text><polygon fill="#000000" points="411.8162,665.1328,414.8162,671.1328,417.8162,665.1328,411.8162,665.1328" style="stroke: #000000; stroke-width: 1.0;"/><text fill="#000000" font-family="sans-serif" font-size="13" lengthAdjust="spacingAndGlyphs" textLength="24" x="365.9147" y="632.7903">0..n</text><text fill="#000000" font-family="sans-serif" font-size="13" lengthAdjust="spacingAndGlyphs" textLength="8" x="359.8758" y="679.0197">1</text><!--MD5=[0e4a0d24f7175c731d9cf8a347b3bc9d]
link projects_project to contacts_person--><path d="M331.5031,776.3165 C320.779,800.3689 307.5777,829.9777 297.3363,852.9478 " fill="none" id="projects_project-contacts_person" style="stroke: #383838; stroke-width: 1.0;"/><text fill="#000000" font-family="sans-serif" font-size="13" lengthAdjust="spacingAndGlyphs" textLength="48" x="318.8162" y="819.0669">contact</text><polygon fill="#000000" points="338.3162,828.1328,341.3162,834.1328,344.3162,828.1328,338.3162,828.1328" style="stroke: #000000; stroke-width: 1.0;"/><text fill="#000000" font-family="sans-serif" font-size="13" lengthAdjust="spacingAndGlyphs" textLength="24" x="302.5126" y="796.4599">0..n</text><text fill="#000000" font-family="sans-serif" font-size="13" lengthAdjust="spacingAndGlyphs" textLength="24" x="274.1697" y="841.8486">0..1</text><!--MD5=[b4f5f0908c559840c003b9698225214f]
link projects_project to contacts_organization--><path d="M377.0477,776.1662 C381.7525,785.6914 386.0367,795.947 388.8162,806 C408.742,878.0699 420.3318,902.6967 397.8162,974 C394.5218,984.4328 388.9571,994.6511 382.7859,1003.84 " fill="none" id="projects_project-contacts_organization" style="stroke: #383838; stroke-width: 1.0;"/><text fill="#000000" font-family="sans-serif" font-size="13" lengthAdjust="spacingAndGlyphs" textLength="61" x="410.8162" y="894.5669">customer</text><polygon fill="#000000" points="436.8162,903.6328,439.8162,909.6328,442.8162,903.6328,436.8162,903.6328" style="stroke: #000000; stroke-width: 1.0;"/><text fill="#000000" font-family="sans-serif" font-size="13" lengthAdjust="spacingAndGlyphs" textLength="24" x="355.4048" y="796.6014">0..n</text><text fill="#000000" font-family="sans-serif" font-size="13" lengthAdjust="spacingAndGlyphs" textLength="8" x="379.768" y="992.9985">1</text><!--MD5=[cc2e47db9de53a395d513032cc9fa67d]
link projects_service to offers_offer--><path d="M378.0931,347.2925 C385.0365,371.691 392.7047,398.6361 399.8626,423.7882 " fill="none" id="projects_service-offers_offer" style="stroke: #383838; stroke-width: 1.0;"/><text fill="#000000" font-family="sans-serif" font-size="13" lengthAdjust="spacingAndGlyphs" textLength="74" x="391.8162" y="390.0669">offered with</text><polygon fill="#000000" points="424.3162,399.1328,427.3162,405.1328,430.3162,399.1328,424.3162,399.1328" style="stroke: #000000; stroke-width: 1.0;"/><text fill="#000000" font-family="sans-serif" font-size="13" lengthAdjust="spacingAndGlyphs" textLength="24" x="355.0974" y="367.3071">1..n</text><text fill="#000000" font-family="sans-serif" font-size="13" lengthAdjust="spacingAndGlyphs" textLength="24" x="372.8802" y="413.0403">0..1</text><!--MD5=[8976a43137e48579ac90442c8fe15a7c]
link projects_service to projects_project--><path d="M354.1171,347.1996 C353.2639,446.9217 351.8526,611.8644 351.1863,689.7405 " fill="none" id="projects_service-projects_project" style="stroke: #383838; stroke-width: 1.0;"/><text fill="#000000" font-family="sans-serif" font-size="13" lengthAdjust="spacingAndGlyphs" textLength="24" x="328.9861" y="367.206">0..n</text><text fill="#000000" font-family="sans-serif" font-size="13" lengthAdjust="spacingAndGlyphs" textLength="8" x="342.6305" y="679.0133">1</text><!--MD5=[693551c2efe691916a06f69ac12e4e15]
@startuml

skinparam monochrome true
skinparam classStereotypeFontSize 10

class "accounts_team" {
  name
}

class "accounts_user" {
  email
  short_name
  full_name
  is_active
  enforce_same_week_logging
}

class "contacts_organization" {
  name
  is_private_person
}

class "contacts_person" {
  given_name
  family_name
}

class "logbook_loggedcost" {
  rendered_on
  cost
  third_party_costs
  description
}

class "logbook_loggedhours" {
  rendered_on
  hours
  description
}

class "offers_offer" {
  offered_on
  title
  description
  status
  postal_address
  subtotal
  discount
  liable_to_vat
  total_excl_tax
  tax_rate
  total
}

class "projects_project" {
  title
  description
  type
}

class "projects_service" {
  title
  description
  effort_hours
  effort_rate
  effort_type
  cost
  third_party_costs
  /service_cost
  /service_hours
}

class "services_servicetype" {
  title
  hourly_rate
}

 accounts_user "1..n" - - "0..n" accounts_team : member of >

 contacts_person "0..n" - - "0..1" contacts_organization : employed by >

 logbook_loggedcost "0..n" - - "1" accounts_user : rendered by >

 logbook_loggedcost "0..n" - - "1" projects_service : logged on >

 logbook_loggedhours "0..n" - - "1" accounts_user : rendered by >

 logbook_loggedhours "0..n" - - "1" projects_service : logged on >

 offers_offer "0..n" - - "1" projects_project : belongs to >

 projects_project "0..n" - - "0..1" contacts_person : contact >

 projects_project "0..n" - - "1" contacts_organization : customer >

 projects_service "1..n" - - "0..1" offers_offer : offered with >

 projects_service "0..n" - - "1" projects_project

@enduml

PlantUML version 1.2020.01(Sun Feb 16 18:40:32 CET 2020)
(GPL source distribution)
Java Runtime: OpenJDK Runtime Environment
JVM: OpenJDK 64-Bit Server VM
Java Version: 11.0.6+10-post-Ubuntu-1ubuntu118.04.1
Operating System: Linux
Default Encoding: UTF-8
Language: en
Country: US
--></g></svg>